<svg id="svg" version="1.1" xmlns="http://www.w3.org/2000/svg" xmlns:xlink="http://www.w3.org/1999/xlink" width="400" height="400.5722460658083" viewBox="0, 0, 400,400.5722460658083"><g id="svgg"><path id="path0" d="M142.400 85.200 C 142.400 85.420,141.992 85.600,141.494 85.600 C 140.664 85.600,137.671 86.960,137.200 87.551 C 137.090 87.689,136.235 88.321,135.300 88.956 C 134.365 89.590,133.600 90.270,133.600 90.467 C 133.600 90.664,133.293 90.943,132.918 91.087 C 132.542 91.231,131.897 91.630,131.484 91.974 C 131.071 92.318,130.343 92.920,129.866 93.310 C 128.468 94.457,124.015 98.475,122.343 100.100 C 121.495 100.925,120.794 101.465,120.787 101.300 C 120.780 101.135,120.510 101.349,120.187 101.776 C 119.864 102.204,119.600 102.417,119.600 102.252 C 119.600 102.086,119.056 102.547,118.390 103.275 C 117.725 104.004,117.050 104.602,116.890 104.605 C 116.731 104.608,116.016 105.148,115.303 105.805 C 112.328 108.545,111.643 109.110,111.488 108.955 C 111.399 108.865,110.867 109.217,110.306 109.736 C 109.746 110.256,108.998 110.792,108.644 110.928 C 108.290 111.064,108.000 111.361,108.000 111.587 C 108.000 111.814,107.811 112.000,107.581 112.000 C 107.350 112.000,106.077 112.720,104.752 113.600 C 103.427 114.480,102.146 115.200,101.905 115.200 C 101.664 115.200,101.592 115.325,101.745 115.479 C 101.898 115.632,100.938 116.266,99.612 116.887 C 98.285 117.509,97.200 118.179,97.200 118.377 C 97.200 118.575,96.660 118.855,96.000 119.000 C 95.340 119.145,94.800 119.429,94.800 119.632 C 94.800 119.834,94.568 120.000,94.285 120.000 C 94.001 120.000,93.084 120.350,92.246 120.777 C 91.408 121.204,90.199 121.668,89.561 121.809 C 88.922 121.949,88.400 122.210,88.400 122.388 C 88.400 122.567,87.907 122.837,87.304 122.988 C 86.701 123.140,86.116 123.396,86.004 123.558 C 85.805 123.845,82.729 124.846,79.300 125.739 C 78.365 125.983,77.600 126.310,77.600 126.466 C 77.600 126.623,76.745 126.877,75.700 127.031 C 74.655 127.185,73.710 127.436,73.600 127.588 C 73.418 127.840,69.590 128.623,66.600 129.020 C 65.940 129.108,64.140 129.355,62.600 129.569 C 61.060 129.783,58.651 129.968,57.246 129.979 L 54.691 130.000 54.942 131.833 C 55.081 132.841,55.510 134.080,55.897 134.587 C 56.284 135.093,56.870 135.904,57.200 136.389 C 58.183 137.833,59.501 139.165,59.726 138.941 C 59.841 138.826,60.136 139.107,60.382 139.566 C 60.627 140.025,61.049 140.400,61.320 140.400 C 61.591 140.400,62.484 140.760,63.304 141.200 C 64.125 141.640,65.068 142.000,65.399 142.000 C 65.729 142.000,66.000 142.150,66.000 142.334 C 66.000 142.712,69.347 143.355,75.800 144.216 C 78.220 144.540,80.578 144.967,81.039 145.166 C 81.500 145.364,82.895 145.654,84.139 145.810 C 85.383 145.965,86.400 146.251,86.400 146.446 C 86.400 146.641,86.726 146.800,87.124 146.800 C 87.521 146.800,88.196 147.064,88.624 147.387 C 89.051 147.710,89.613 147.980,89.874 147.987 C 90.135 147.994,90.855 148.209,91.474 148.464 C 92.093 148.719,92.825 148.892,93.100 148.847 C 93.375 148.802,93.600 148.942,93.600 149.158 C 93.600 149.374,94.455 149.664,95.500 149.803 C 96.545 149.941,97.760 150.202,98.200 150.382 C 99.318 150.838,101.600 150.886,101.600 150.453 C 101.600 150.256,102.905 149.963,104.500 149.804 C 106.095 149.644,107.760 149.437,108.200 149.343 C 109.584 149.048,115.253 148.963,115.421 149.235 C 115.510 149.378,116.527 149.620,117.681 149.773 C 118.835 149.926,120.010 150.243,120.292 150.476 C 121.392 151.389,133.580 151.339,133.015 150.424 C 132.909 150.252,133.856 150.004,135.120 149.871 C 137.790 149.592,143.200 149.969,143.200 150.434 C 143.200 150.609,144.456 150.875,145.992 151.027 C 147.528 151.178,148.687 151.459,148.568 151.652 C 148.449 151.845,148.767 151.939,149.276 151.861 C 149.784 151.784,150.155 151.603,150.100 151.460 C 150.000 151.199,149.959 151.056,149.830 150.500 C 149.568 149.371,149.094 148.400,148.805 148.400 C 148.617 148.400,148.345 147.860,148.200 147.200 C 148.055 146.540,147.792 146.000,147.616 146.000 C 147.305 146.000,146.415 143.785,145.486 140.700 C 145.238 139.875,144.892 139.200,144.717 139.200 C 144.543 139.200,144.400 138.030,144.400 136.600 C 144.400 135.170,144.543 134.000,144.717 134.000 C 144.972 134.000,146.140 130.488,146.017 130.092 C 145.998 130.033,146.170 129.763,146.399 129.492 C 147.948 127.659,148.400 127.037,148.400 126.739 C 148.400 126.552,149.467 125.365,150.771 124.100 C 153.800 121.163,154.167 120.869,155.389 120.404 C 155.945 120.193,156.400 119.844,156.400 119.628 C 156.400 119.413,157.030 119.118,157.800 118.974 C 158.570 118.829,159.200 118.565,159.200 118.387 C 159.200 118.209,159.740 117.945,160.400 117.800 C 161.060 117.655,161.600 117.393,161.600 117.218 C 161.600 116.916,162.710 116.598,165.400 116.130 C 166.060 116.015,166.690 115.775,166.801 115.597 C 166.911 115.419,167.678 115.147,168.505 114.991 C 170.756 114.569,170.681 114.329,167.206 110.830 C 165.443 109.055,164.000 107.497,164.000 107.368 C 164.000 107.240,163.100 106.229,162.000 105.124 C 160.900 104.018,160.000 102.863,160.000 102.557 C 160.000 102.250,159.830 102.000,159.622 102.000 C 159.270 102.000,158.813 101.303,157.524 98.800 C 157.241 98.250,156.782 97.562,156.505 97.271 C 156.227 96.981,156.000 96.591,156.000 96.406 C 156.000 96.089,153.630 92.263,152.899 91.400 C 152.712 91.180,152.439 90.685,152.292 90.300 C 152.145 89.915,151.839 89.600,151.613 89.600 C 151.386 89.600,151.200 89.370,151.200 89.089 C 151.200 88.262,148.964 86.056,147.838 85.774 C 147.267 85.631,146.800 85.353,146.800 85.157 C 146.800 84.960,145.810 84.800,144.600 84.800 C 143.390 84.800,142.400 84.980,142.400 85.200 M249.000 85.200 C 248.864 85.420,248.345 85.600,247.848 85.600 C 247.271 85.600,246.445 86.206,245.571 87.270 C 244.817 88.189,243.885 89.269,243.500 89.670 C 243.115 90.072,242.800 90.543,242.800 90.719 C 242.800 91.062,241.804 92.458,240.739 93.608 C 240.376 94.000,239.959 94.699,239.813 95.161 C 239.666 95.622,239.408 96.000,239.238 96.000 C 239.069 96.000,238.430 96.990,237.818 98.200 C 237.206 99.410,236.546 100.400,236.352 100.400 C 236.159 100.400,236.000 100.661,236.000 100.980 C 236.000 101.299,235.774 101.704,235.498 101.880 C 235.221 102.056,234.463 102.920,233.812 103.800 C 233.161 104.680,232.442 105.618,232.214 105.884 C 231.987 106.149,231.170 107.207,230.400 108.233 C 229.630 109.260,228.145 110.948,227.100 111.986 C 225.094 113.979,224.667 115.200,225.976 115.200 C 226.403 115.200,226.848 115.354,226.965 115.543 C 227.082 115.732,228.532 116.105,230.189 116.372 C 231.845 116.640,233.200 117.025,233.200 117.229 C 233.200 117.433,233.428 117.600,233.706 117.600 C 233.984 117.600,234.884 117.960,235.704 118.400 C 236.525 118.840,237.448 119.200,237.756 119.200 C 238.063 119.200,238.419 119.472,238.546 119.804 C 238.673 120.136,238.918 120.386,239.089 120.360 C 239.747 120.261,241.181 120.907,240.990 121.217 C 240.879 121.396,241.134 121.652,241.557 121.786 C 241.980 121.921,242.431 122.305,242.560 122.641 C 242.689 122.976,242.953 123.153,243.147 123.033 C 243.341 122.913,244.107 123.554,244.850 124.459 C 245.592 125.363,246.484 126.408,246.831 126.782 C 247.177 127.155,247.577 127.762,247.718 128.131 C 247.859 128.499,248.161 128.800,248.387 128.800 C 248.614 128.800,248.800 129.032,248.800 129.315 C 248.800 129.599,249.193 130.544,249.673 131.415 C 250.698 133.278,250.990 139.407,250.103 140.475 C 249.830 140.804,249.725 141.192,249.870 141.337 C 250.015 141.482,249.943 141.600,249.711 141.600 C 249.479 141.600,249.171 142.230,249.026 143.000 C 248.882 143.770,248.606 144.400,248.414 144.400 C 248.221 144.400,247.945 144.940,247.800 145.600 C 247.655 146.260,247.371 146.800,247.168 146.800 C 246.966 146.800,246.800 146.968,246.800 147.174 C 246.800 147.380,246.590 148.055,246.334 148.674 C 246.077 149.293,245.852 149.920,245.834 150.067 C 245.815 150.213,245.665 150.468,245.500 150.633 C 243.854 152.279,247.159 152.809,249.959 151.348 C 250.531 151.049,251.326 150.804,251.724 150.802 C 252.122 150.801,252.342 150.629,252.212 150.420 C 251.566 149.373,260.253 149.448,261.520 150.500 C 262.333 151.175,274.298 151.211,274.714 150.539 C 274.972 150.124,278.565 149.326,279.300 149.521 C 279.465 149.564,279.600 149.465,279.600 149.300 C 279.600 149.135,280.410 148.970,281.400 148.933 C 282.390 148.897,283.425 148.851,283.700 148.833 C 283.975 148.814,285.730 149.059,287.600 149.378 C 289.470 149.696,291.866 149.966,292.924 149.978 C 294.156 149.992,294.754 150.150,294.589 150.418 C 294.330 150.836,295.562 150.767,296.800 150.294 C 297.130 150.168,298.300 149.959,299.400 149.830 C 301.238 149.615,304.956 148.327,306.400 147.406 C 306.730 147.195,307.352 146.968,307.783 146.901 C 308.213 146.835,308.663 146.625,308.783 146.435 C 308.902 146.245,310.170 145.892,311.600 145.650 C 313.030 145.408,315.010 145.043,316.000 144.839 C 316.990 144.635,319.465 144.340,321.500 144.183 C 323.535 144.025,325.200 143.746,325.200 143.562 C 325.200 143.378,326.100 143.108,327.200 142.962 C 328.300 142.816,329.200 142.554,329.200 142.380 C 329.200 142.206,329.740 141.945,330.400 141.800 C 331.060 141.655,331.600 141.385,331.600 141.200 C 331.600 141.015,332.152 140.742,332.827 140.594 C 333.502 140.446,334.151 140.072,334.270 139.762 C 334.388 139.453,334.668 139.200,334.890 139.200 C 335.416 139.200,338.400 136.216,338.400 135.690 C 338.400 135.468,338.653 135.188,338.962 135.070 C 339.272 134.951,339.646 134.302,339.794 133.627 C 339.942 132.952,340.229 132.400,340.432 132.400 C 340.634 132.400,340.800 131.878,340.800 131.239 L 340.800 130.079 336.100 129.762 C 331.476 129.451,331.099 129.412,330.500 129.188 C 330.335 129.126,329.750 129.019,329.200 128.950 C 326.500 128.611,322.578 127.827,322.400 127.590 C 322.290 127.443,321.310 127.204,320.222 127.058 C 319.134 126.913,318.144 126.641,318.022 126.455 C 317.900 126.268,317.080 125.983,316.200 125.822 C 315.320 125.660,314.402 125.365,314.160 125.165 C 313.919 124.966,312.758 124.620,311.581 124.396 C 310.404 124.173,309.340 123.827,309.217 123.627 C 309.093 123.427,308.499 123.140,307.896 122.988 C 307.293 122.837,306.800 122.573,306.800 122.401 C 306.800 122.229,306.170 121.971,305.400 121.826 C 304.630 121.682,304.000 121.392,304.000 121.182 C 304.000 120.972,303.766 120.800,303.480 120.800 C 302.777 120.800,300.807 119.866,300.803 119.532 C 300.801 119.384,300.260 119.145,299.600 119.000 C 298.940 118.855,298.400 118.607,298.400 118.449 C 298.400 118.290,297.770 117.933,297.000 117.654 C 296.230 117.376,295.600 116.994,295.600 116.806 C 295.600 116.618,295.075 116.348,294.433 116.207 C 293.792 116.066,293.167 115.692,293.046 115.376 C 292.924 115.059,292.549 114.800,292.213 114.800 C 291.876 114.800,291.600 114.638,291.600 114.439 C 291.600 114.241,291.105 113.903,290.500 113.688 C 289.895 113.474,288.896 112.826,288.279 112.249 C 287.663 111.672,287.016 111.200,286.841 111.200 C 286.667 111.200,286.198 110.840,285.800 110.400 C 285.402 109.960,284.924 109.600,284.738 109.600 C 284.386 109.600,283.755 109.107,281.612 107.158 C 280.911 106.521,280.197 106.000,280.024 106.000 C 279.686 106.000,276.985 103.616,273.112 99.900 C 271.794 98.635,270.559 97.600,270.369 97.600 C 270.179 97.600,269.147 96.700,268.075 95.600 C 267.004 94.500,265.990 93.600,265.824 93.600 C 265.657 93.600,264.890 92.970,264.120 92.200 C 263.350 91.430,262.513 90.792,262.260 90.783 C 262.007 90.774,261.358 90.234,260.819 89.583 C 260.279 88.932,259.598 88.400,259.306 88.400 C 259.014 88.400,258.678 88.146,258.559 87.836 C 258.439 87.526,257.905 87.163,257.371 87.028 C 256.837 86.894,256.400 86.624,256.400 86.428 C 256.400 86.231,255.681 85.949,254.802 85.800 C 253.923 85.652,253.103 85.366,252.978 85.165 C 252.672 84.670,249.309 84.699,249.000 85.200 M195.900 85.871 C 195.075 85.968,194.400 86.217,194.400 86.424 C 194.400 86.631,193.963 86.800,193.429 86.800 C 192.894 86.800,192.214 87.043,191.918 87.340 C 191.621 87.636,190.746 88.088,189.973 88.343 C 187.973 89.003,184.412 92.522,183.915 94.330 C 183.693 95.138,183.306 95.929,183.055 96.086 C 182.445 96.469,182.429 105.118,183.038 105.515 C 183.280 105.672,183.607 106.329,183.765 106.976 C 184.211 108.797,188.154 113.600,189.203 113.600 C 189.390 113.600,189.781 113.825,190.071 114.100 C 191.919 115.847,200.085 116.814,202.200 115.536 C 202.420 115.403,203.185 115.169,203.900 115.015 C 204.615 114.862,205.200 114.590,205.200 114.412 C 205.200 114.233,205.643 113.975,206.185 113.839 C 207.326 113.553,210.800 110.177,210.800 109.355 C 210.800 109.050,210.944 108.800,211.120 108.800 C 211.527 108.800,212.400 106.410,212.400 105.295 C 212.400 104.829,212.580 104.336,212.800 104.200 C 213.020 104.064,213.200 102.603,213.200 100.953 C 213.200 99.055,213.053 98.044,212.800 98.200 C 212.580 98.336,212.400 98.053,212.400 97.570 C 212.400 96.077,211.509 93.459,210.560 92.162 C 209.094 90.159,206.858 88.000,206.250 88.000 C 205.940 88.000,205.582 87.730,205.455 87.400 C 205.329 87.070,204.895 86.800,204.493 86.800 C 204.090 86.800,203.589 86.633,203.380 86.429 C 202.926 85.987,198.018 85.620,195.900 85.871 M195.012 118.665 C 194.139 118.980,193.329 119.364,193.212 119.518 C 193.095 119.673,192.640 119.993,192.200 120.230 C 191.760 120.466,191.110 121.227,190.756 121.919 C 190.402 122.612,190.018 123.085,189.904 122.971 C 189.790 122.856,189.568 123.446,189.412 124.281 C 189.256 125.117,188.962 126.001,188.759 126.247 C 187.960 127.214,187.550 135.542,187.824 145.200 C 188.107 155.140,188.229 155.821,189.651 155.380 C 190.008 155.268,191.898 154.896,193.851 154.553 C 202.863 152.966,207.261 152.072,207.569 151.764 C 208.219 151.116,207.775 125.200,207.115 125.200 C 206.942 125.200,206.800 124.785,206.800 124.278 C 206.800 123.770,206.350 122.745,205.800 122.000 C 205.250 121.255,204.800 120.770,204.800 120.922 C 204.800 121.075,204.469 120.885,204.063 120.500 C 203.658 120.115,203.397 119.668,203.482 119.508 C 203.568 119.347,202.909 119.099,202.019 118.957 C 201.128 118.814,200.400 118.541,200.400 118.349 C 200.400 117.812,196.792 118.024,195.012 118.665 M13.832 126.571 C 13.690 127.325,13.445 128.000,13.287 128.071 C 13.129 128.142,12.489 129.280,11.864 130.600 C 11.240 131.920,10.565 133.313,10.364 133.695 C 10.164 134.077,9.994 134.707,9.986 135.095 C 9.979 135.483,9.625 136.520,9.200 137.400 C 8.775 138.280,8.421 139.315,8.414 139.700 C 8.406 140.085,8.236 140.400,8.035 140.400 C 7.834 140.400,7.544 141.165,7.390 142.100 C 7.236 143.035,6.973 143.980,6.807 144.200 C 6.640 144.420,6.270 145.806,5.983 147.281 C 5.696 148.755,5.333 149.882,5.177 149.786 C 5.020 149.689,4.767 150.778,4.614 152.205 C 4.461 153.632,4.182 154.800,3.992 154.800 C 3.803 154.800,3.524 156.060,3.373 157.600 C 3.221 159.140,2.971 160.400,2.818 160.400 C 2.665 160.400,2.302 162.695,2.011 165.500 C 1.720 168.305,1.348 170.690,1.185 170.800 C 0.017 171.587,-0.306 214.538,0.797 222.400 C 0.998 223.830,1.430 227.070,1.758 229.600 C 2.086 232.130,2.454 234.740,2.577 235.400 C 2.699 236.060,3.005 237.905,3.256 239.500 C 3.507 241.095,3.844 242.400,4.005 242.400 C 4.165 242.400,4.424 243.523,4.579 244.896 C 4.734 246.269,4.999 247.574,5.167 247.796 C 5.335 248.018,5.698 249.505,5.973 251.100 C 6.248 252.695,6.613 254.000,6.785 254.000 C 6.956 254.000,7.216 254.900,7.362 256.000 C 7.508 257.100,7.781 258.000,7.968 258.000 C 8.156 258.000,8.431 258.810,8.579 259.800 C 8.728 260.790,9.002 261.600,9.189 261.600 C 9.377 261.600,9.656 262.365,9.810 263.300 C 9.964 264.235,10.272 265.225,10.494 265.500 C 10.716 265.775,10.764 266.000,10.600 266.000 C 10.436 266.000,10.483 266.225,10.705 266.500 C 10.926 266.775,11.233 267.585,11.386 268.300 C 11.538 269.015,11.821 269.600,12.014 269.600 C 12.206 269.600,12.474 270.185,12.609 270.900 C 12.817 272.003,13.198 272.362,15.127 273.273 L 17.400 274.347 23.800 273.992 C 27.320 273.797,33.830 273.629,38.267 273.618 C 47.777 273.597,47.655 273.622,47.088 271.775 C 46.856 271.019,46.535 270.400,46.376 270.400 C 46.217 270.400,45.963 269.907,45.812 269.304 C 45.660 268.701,45.416 268.116,45.268 268.004 C 44.748 267.609,43.620 264.978,43.165 263.100 C 42.912 262.055,42.566 261.200,42.397 261.200 C 42.228 261.200,41.971 260.570,41.826 259.800 C 41.682 259.030,41.398 258.400,41.196 258.400 C 40.993 258.400,40.708 257.500,40.562 256.400 C 40.416 255.300,40.173 254.400,40.022 254.400 C 39.871 254.400,39.514 253.230,39.230 251.800 C 38.946 250.370,38.570 249.200,38.394 249.200 C 38.219 249.200,37.948 248.255,37.793 247.100 C 37.637 245.945,37.371 244.820,37.200 244.600 C 37.030 244.380,36.764 243.435,36.610 242.500 C 36.456 241.565,36.192 240.800,36.023 240.800 C 35.854 240.800,35.492 238.910,35.219 236.599 C 34.945 234.289,34.574 232.307,34.394 232.196 C 34.102 232.016,33.356 226.026,33.578 225.645 C 33.628 225.559,33.484 225.376,33.259 225.236 C 33.034 225.097,32.724 223.097,32.572 220.792 C 32.419 218.486,32.093 216.347,31.847 216.039 C 31.210 215.239,31.218 183.947,31.856 183.161 C 32.106 182.853,32.443 180.710,32.603 178.400 C 32.764 176.090,33.029 174.110,33.193 174.000 C 33.357 173.890,33.610 172.562,33.754 171.048 C 33.899 169.534,34.129 168.115,34.266 167.894 C 34.403 167.672,34.543 167.201,34.578 166.846 C 34.839 164.207,35.772 160.059,36.063 160.239 C 36.259 160.360,36.382 160.311,36.335 160.130 C 36.156 159.435,36.888 156.400,37.235 156.400 C 37.436 156.400,37.574 156.265,37.541 156.100 C 37.395 155.355,38.141 152.400,38.475 152.400 C 38.680 152.400,38.744 152.232,38.617 152.028 C 38.491 151.823,38.559 151.549,38.770 151.418 C 38.981 151.288,39.274 150.377,39.422 149.395 C 39.569 148.412,39.829 147.694,40.000 147.800 C 40.171 147.906,40.432 147.180,40.581 146.188 C 40.730 145.196,41.004 144.479,41.190 144.594 C 41.377 144.709,41.651 144.083,41.800 143.202 C 41.949 142.321,42.204 141.600,42.368 141.600 C 42.532 141.600,42.688 141.375,42.715 141.100 C 42.845 139.753,43.774 136.800,44.067 136.800 C 44.250 136.800,44.400 136.560,44.400 136.267 C 44.400 135.561,45.942 130.444,46.502 129.292 C 47.360 127.528,48.403 127.663,23.800 126.350 C 18.960 126.092,14.940 125.727,14.867 125.540 C 14.570 124.784,14.074 125.278,13.832 126.571 M357.800 126.320 C 354.817 126.822,352.581 128.817,353.345 130.294 C 353.668 130.918,354.057 132.098,354.211 132.918 C 354.365 133.738,354.650 134.507,354.845 134.628 C 355.040 134.749,355.200 135.116,355.200 135.446 C 355.200 135.775,355.544 136.799,355.964 137.722 C 356.384 138.645,356.854 140.077,357.009 140.904 C 357.164 141.732,357.435 142.498,357.611 142.607 C 357.786 142.715,358.052 143.523,358.200 144.402 C 358.349 145.281,358.634 146.000,358.835 146.000 C 359.036 146.000,359.200 146.378,359.200 146.840 C 359.200 147.301,359.451 148.246,359.758 148.940 C 360.064 149.633,360.807 151.820,361.408 153.800 C 362.009 155.780,362.658 157.571,362.851 157.780 C 363.043 157.989,363.200 158.502,363.200 158.920 C 363.200 159.337,363.451 160.246,363.758 160.940 C 364.065 161.633,364.523 163.541,364.775 165.179 C 365.027 166.818,365.385 168.348,365.569 168.579 C 365.874 168.962,366.637 174.990,366.470 175.700 C 366.432 175.865,366.561 176.000,366.758 176.000 C 367.043 176.000,367.524 182.045,367.768 188.667 C 367.786 189.144,367.935 189.669,368.100 189.833 C 368.517 190.250,368.479 208.496,368.063 208.239 C 367.877 208.124,367.607 211.290,367.463 215.274 C 367.318 219.258,367.045 222.716,366.854 222.959 C 366.664 223.201,366.386 224.920,366.238 226.778 C 366.090 228.636,365.823 230.346,365.646 230.578 C 365.469 230.810,365.095 232.597,364.814 234.548 C 364.533 236.499,364.056 238.569,363.754 239.148 C 363.452 239.727,363.204 240.695,363.202 241.300 C 363.201 241.905,363.020 242.400,362.800 242.400 C 362.580 242.400,362.400 242.701,362.400 243.070 C 362.400 243.822,360.657 249.127,359.775 251.060 C 359.459 251.754,359.200 252.609,359.200 252.960 C 359.200 253.312,359.034 253.600,358.832 253.600 C 358.629 253.600,358.338 254.185,358.186 254.900 C 358.033 255.615,357.768 256.380,357.598 256.600 C 357.428 256.820,357.060 258.035,356.781 259.300 C 356.501 260.565,356.145 261.600,355.988 261.600 C 355.831 261.600,355.584 262.500,355.438 263.600 C 355.292 264.700,355.022 265.600,354.837 265.600 C 354.653 265.600,354.381 266.356,354.234 267.280 C 354.086 268.204,353.816 269.149,353.635 269.380 C 352.948 270.253,352.697 272.925,353.323 272.685 C 353.836 272.488,369.504 273.190,381.200 273.933 L 385.400 274.200 386.452 272.138 C 387.031 271.004,387.818 269.204,388.201 268.138 C 388.584 267.072,389.132 265.660,389.418 265.000 C 389.704 264.340,390.067 263.260,390.224 262.600 C 390.382 261.940,390.649 261.220,390.818 261.000 C 390.987 260.780,391.252 259.747,391.407 258.704 C 391.563 257.661,391.854 256.910,392.055 257.034 C 392.256 257.158,392.385 257.111,392.343 256.930 C 392.209 256.358,392.826 253.432,393.240 252.676 C 393.459 252.277,393.844 250.533,394.096 248.800 C 394.349 247.067,394.682 245.727,394.837 245.823 C 394.992 245.919,395.246 244.737,395.400 243.197 C 395.555 241.657,395.825 240.308,396.000 240.200 C 396.175 240.092,396.445 238.742,396.600 237.200 C 396.755 235.658,397.020 234.311,397.190 234.206 C 397.360 234.101,397.732 231.627,398.016 228.708 C 398.301 225.788,398.655 223.310,398.803 223.200 C 400.278 222.103,400.274 178.471,398.798 176.600 C 398.625 176.380,398.356 174.694,398.200 172.854 C 398.045 171.013,397.784 169.033,397.620 168.454 C 397.457 167.874,397.400 167.175,397.495 166.900 C 397.589 166.625,397.493 166.400,397.280 166.400 C 397.068 166.400,396.767 165.050,396.613 163.400 C 396.458 161.750,396.204 160.400,396.048 160.400 C 395.892 160.400,395.564 159.275,395.320 157.900 C 394.632 154.031,393.596 149.484,393.202 148.600 C 393.006 148.160,392.729 147.035,392.588 146.100 C 392.446 145.165,392.166 144.400,391.965 144.400 C 391.764 144.400,391.599 143.905,391.598 143.300 C 391.596 142.695,391.351 141.731,391.052 141.159 C 390.753 140.586,390.383 139.281,390.230 138.259 C 390.076 137.236,389.771 136.400,389.552 136.400 C 389.332 136.400,389.269 136.212,389.411 135.982 C 389.553 135.753,389.489 135.348,389.270 135.082 C 389.051 134.817,388.745 133.923,388.590 133.096 C 388.436 132.268,388.150 131.493,387.955 131.372 C 387.760 131.251,387.600 130.803,387.600 130.376 C 387.600 129.920,387.327 129.600,386.937 129.600 C 386.572 129.600,385.357 128.898,384.237 128.041 L 382.200 126.482 370.400 126.333 C 363.910 126.252,358.240 126.245,357.800 126.320 M205.600 165.169 C 205.270 165.365,204.010 165.718,202.800 165.955 C 195.057 167.469,190.180 169.077,188.500 170.669 C 188.143 171.007,188.000 172.868,188.000 177.171 C 188.000 184.124,187.562 183.606,192.600 182.621 C 199.096 181.351,210.964 177.200,208.099 177.200 C 207.754 177.200,207.590 175.507,207.510 171.105 C 207.395 164.734,207.225 164.206,205.600 165.169 " stroke="none" fill="#0594eb" fill-rule="evenodd"></path><path id="path1" d="M181.000 0.463 C 178.140 0.654,175.440 0.969,175.000 1.163 C 174.560 1.356,172.220 1.734,169.800 2.001 C 167.380 2.269,165.220 2.624,165.000 2.790 C 164.780 2.955,163.532 3.211,162.226 3.358 C 160.921 3.504,159.661 3.781,159.426 3.974 C 159.192 4.166,157.965 4.451,156.700 4.608 C 155.435 4.764,154.400 5.016,154.400 5.166 C 154.400 5.317,153.045 5.682,151.389 5.976 C 149.734 6.270,148.293 6.649,148.189 6.818 C 148.085 6.987,147.099 7.249,146.000 7.400 C 144.900 7.551,144.000 7.822,144.000 8.002 C 144.000 8.182,143.235 8.456,142.300 8.610 C 141.365 8.764,140.420 9.031,140.200 9.202 C 139.980 9.373,138.768 9.725,137.507 9.984 C 136.246 10.242,135.120 10.606,135.005 10.792 C 134.890 10.978,134.078 11.252,133.200 11.400 C 132.322 11.548,131.512 11.818,131.400 12.000 C 131.288 12.182,130.477 12.452,129.598 12.600 C 128.719 12.749,128.000 13.014,128.000 13.191 C 128.000 13.367,127.355 13.632,126.567 13.780 C 125.396 13.999,125.194 14.173,125.462 14.724 C 125.643 15.096,125.847 22.657,125.916 31.527 L 126.042 47.654 127.321 47.374 C 128.024 47.220,129.227 46.757,129.994 46.347 C 130.761 45.936,131.616 45.600,131.894 45.600 C 132.172 45.600,132.400 45.434,132.400 45.232 C 132.400 45.029,132.985 44.737,133.700 44.582 C 134.415 44.426,135.090 44.186,135.200 44.047 C 135.449 43.733,142.017 41.584,142.700 41.593 C 142.975 41.597,143.200 41.443,143.200 41.251 C 143.200 41.059,143.960 40.781,144.888 40.632 C 145.816 40.484,146.671 40.217,146.788 40.040 C 146.981 39.746,149.624 39.027,154.400 37.967 C 155.390 37.747,156.509 37.397,156.886 37.189 C 157.264 36.981,158.569 36.693,159.786 36.550 C 161.004 36.407,162.000 36.158,162.000 35.997 C 162.000 35.835,163.266 35.579,164.813 35.426 C 166.361 35.274,168.476 34.905,169.513 34.607 C 170.551 34.310,172.930 33.941,174.800 33.789 C 176.670 33.636,178.384 33.363,178.609 33.182 C 178.835 33.001,181.946 32.724,185.523 32.567 C 189.100 32.409,192.121 32.128,192.237 31.940 C 192.511 31.497,208.688 31.495,208.962 31.939 C 209.077 32.125,212.005 32.404,215.469 32.559 C 218.932 32.713,221.954 32.987,222.183 33.167 C 222.412 33.347,224.026 33.618,225.768 33.770 C 227.511 33.922,229.867 34.288,231.003 34.584 C 232.140 34.880,234.269 35.251,235.735 35.408 C 237.201 35.565,238.400 35.846,238.400 36.033 C 238.400 36.220,239.300 36.492,240.400 36.638 C 241.500 36.784,242.400 37.044,242.400 37.216 C 242.400 37.389,243.165 37.656,244.100 37.810 C 245.035 37.964,245.980 38.227,246.200 38.394 C 246.420 38.560,247.545 38.934,248.700 39.224 C 249.855 39.514,250.800 39.881,250.800 40.040 C 250.800 40.200,251.520 40.451,252.400 40.600 C 253.280 40.749,254.000 41.014,254.000 41.191 C 254.000 41.367,254.656 41.634,255.458 41.785 C 256.261 41.935,257.296 42.306,257.758 42.609 C 258.221 42.912,259.365 43.282,260.300 43.431 C 261.235 43.580,262.000 43.851,262.000 44.033 C 262.000 44.215,262.630 44.482,263.400 44.626 C 264.170 44.771,264.800 45.019,264.800 45.178 C 264.800 45.336,265.745 45.664,266.900 45.906 C 268.055 46.147,269.855 46.568,270.899 46.840 C 273.534 47.526,273.396 48.370,273.436 31.349 C 273.462 20.262,273.602 15.838,273.936 15.504 C 274.831 14.609,274.397 14.049,272.600 13.779 C 271.610 13.631,270.800 13.365,270.800 13.190 C 270.800 13.014,270.080 12.749,269.200 12.600 C 268.320 12.451,267.600 12.181,267.600 12.000 C 267.600 11.819,266.881 11.549,266.002 11.400 C 265.123 11.252,264.310 10.978,264.195 10.792 C 264.080 10.606,262.999 10.233,261.793 9.964 C 260.587 9.694,259.600 9.342,259.600 9.182 C 259.600 9.022,258.790 8.769,257.800 8.621 C 256.810 8.472,256.000 8.198,256.000 8.011 C 256.000 7.823,255.235 7.544,254.300 7.390 C 253.365 7.236,252.404 6.952,252.165 6.760 C 251.925 6.567,250.350 6.195,248.665 5.933 C 246.979 5.671,245.600 5.330,245.600 5.175 C 245.600 5.020,244.432 4.768,243.004 4.615 C 241.577 4.462,240.319 4.193,240.210 4.016 C 240.101 3.839,238.794 3.565,237.306 3.406 C 235.818 3.247,234.329 2.974,233.999 2.798 C 233.668 2.622,231.238 2.269,228.599 2.014 C 225.959 1.759,223.440 1.393,223.000 1.202 C 220.532 0.128,193.202 -0.353,181.000 0.463 M311.200 164.709 C 311.200 164.879,309.994 165.246,308.520 165.526 C 307.047 165.805,305.652 166.186,305.420 166.371 C 305.189 166.556,304.415 166.833,303.700 166.986 C 302.985 167.138,302.400 167.415,302.400 167.600 C 302.400 167.785,301.860 168.055,301.200 168.200 C 300.540 168.345,300.000 168.615,300.000 168.801 C 300.000 168.986,299.325 169.358,298.500 169.627 C 297.675 169.896,296.910 170.229,296.800 170.366 C 296.690 170.504,296.074 170.883,295.431 171.208 C 293.184 172.346,292.800 172.592,292.800 172.895 C 292.800 173.063,292.614 173.200,292.387 173.200 C 290.287 173.200,279.600 182.796,279.600 184.681 C 279.600 184.967,279.448 185.200,279.263 185.200 C 278.838 185.200,278.000 187.951,278.000 189.346 C 278.000 189.926,277.820 190.400,277.600 190.400 C 277.352 190.400,277.200 192.552,277.200 196.056 L 277.200 201.711 279.656 201.488 C 281.007 201.366,282.222 201.099,282.356 200.894 C 282.490 200.690,283.095 200.402,283.700 200.254 C 284.305 200.106,284.800 199.808,284.800 199.592 C 284.800 199.377,285.061 199.200,285.380 199.200 C 285.699 199.200,286.104 198.956,286.280 198.658 C 286.456 198.361,286.972 197.922,287.428 197.683 C 288.653 197.041,291.476 194.451,297.655 188.300 C 300.693 185.275,303.349 182.800,303.557 182.800 C 303.764 182.800,304.014 182.575,304.112 182.300 C 304.210 182.025,304.429 181.929,304.598 182.086 C 304.767 182.243,304.631 182.963,304.297 183.686 C 303.963 184.409,303.567 185.405,303.418 185.900 C 303.268 186.395,302.978 186.800,302.773 186.800 C 302.568 186.800,302.400 187.006,302.400 187.259 C 302.400 188.241,295.240 195.917,292.113 198.287 C 289.789 200.047,284.800 205.190,284.800 205.824 C 284.800 206.141,284.658 206.400,284.483 206.400 C 283.329 206.400,282.911 209.237,283.983 209.791 C 287.747 211.738,304.000 210.874,304.000 208.727 C 304.000 208.547,304.233 208.400,304.519 208.400 C 305.547 208.400,311.219 203.281,311.721 201.900 C 311.860 201.515,312.146 201.200,312.356 201.200 C 312.565 201.200,312.855 200.660,313.000 200.000 C 313.145 199.340,313.429 198.800,313.632 198.800 C 313.834 198.800,314.000 198.610,314.000 198.378 C 314.000 198.146,314.354 197.178,314.787 196.228 C 315.220 195.277,315.695 193.712,315.842 192.750 C 315.989 191.787,316.310 190.747,316.555 190.438 C 317.177 189.653,317.177 169.684,316.554 169.285 C 316.309 169.128,315.981 167.965,315.825 166.700 L 315.542 164.400 313.371 164.400 C 312.177 164.400,311.200 164.539,311.200 164.709 M250.096 168.485 C 247.927 171.098,248.884 184.400,251.240 184.400 C 251.438 184.400,251.600 184.630,251.600 184.911 C 251.600 185.488,252.691 186.519,253.718 186.913 C 254.093 187.057,254.400 187.346,254.400 187.556 C 254.400 187.765,254.985 188.063,255.700 188.218 C 256.415 188.374,257.090 188.634,257.200 188.798 C 257.310 188.961,258.750 189.217,260.400 189.365 L 263.400 189.636 264.942 187.541 C 265.790 186.389,266.587 185.166,266.713 184.823 C 266.839 184.481,267.135 184.072,267.371 183.915 C 268.004 183.494,267.939 176.713,267.300 176.500 C 267.025 176.408,266.800 176.118,266.800 175.856 C 266.800 175.183,265.331 174.004,263.851 173.489 C 263.163 173.250,262.362 172.817,262.071 172.527 C 261.781 172.237,261.286 172.000,260.971 172.000 C 260.657 172.000,260.400 171.857,260.400 171.683 C 260.400 171.348,255.966 169.200,255.273 169.200 C 255.050 169.200,254.799 168.997,254.716 168.749 C 254.475 168.026,250.658 167.807,250.096 168.485 M239.600 189.755 C 239.600 190.110,239.428 190.400,239.218 190.400 C 239.008 190.400,238.718 191.030,238.574 191.800 C 238.429 192.570,238.169 193.200,237.995 193.200 C 237.822 193.200,237.464 194.100,237.200 195.200 C 236.936 196.300,236.578 197.200,236.405 197.200 C 236.231 197.200,235.963 197.875,235.809 198.700 C 235.655 199.525,235.388 200.380,235.216 200.600 C 235.045 200.820,234.775 201.720,234.616 202.600 C 234.458 203.480,234.177 204.383,233.992 204.607 C 233.807 204.831,233.437 206.631,233.169 208.607 C 232.901 210.583,232.536 212.389,232.359 212.620 C 232.181 212.850,231.911 214.965,231.759 217.320 C 231.607 219.674,231.329 221.600,231.141 221.600 C 230.953 221.600,230.800 226.010,230.800 231.400 C 230.800 236.929,230.957 241.200,231.159 241.200 C 231.357 241.200,231.645 242.460,231.800 244.000 C 231.955 245.540,232.210 246.800,232.367 246.800 C 232.525 246.800,232.886 247.970,233.170 249.400 C 233.454 250.830,233.827 252.000,233.999 252.000 C 234.171 252.000,234.429 252.630,234.574 253.400 C 234.718 254.170,235.008 254.800,235.218 254.800 C 235.428 254.800,235.600 255.027,235.600 255.303 C 235.600 255.738,238.177 259.973,239.388 261.529 C 241.390 264.100,247.698 269.839,249.346 270.589 C 249.816 270.802,250.336 271.193,250.502 271.457 C 250.669 271.721,251.344 272.056,252.002 272.201 C 252.661 272.345,253.200 272.615,253.200 272.800 C 253.200 272.985,253.740 273.255,254.400 273.400 C 255.060 273.545,255.600 273.821,255.600 274.014 C 255.600 274.206,256.232 274.482,257.004 274.627 C 257.777 274.772,258.500 275.038,258.611 275.218 C 258.723 275.399,259.846 275.748,261.107 275.994 C 262.368 276.240,263.832 276.657,264.360 276.921 C 265.674 277.576,281.642 277.592,282.438 276.939 C 282.747 276.686,283.765 276.274,284.700 276.024 C 285.635 275.774,286.400 275.396,286.400 275.185 C 286.400 274.973,286.670 274.800,287.000 274.800 C 289.240 274.800,279.707 265.039,276.400 263.947 C 275.630 263.692,274.900 263.331,274.778 263.144 C 274.655 262.957,273.440 262.687,272.078 262.545 C 270.715 262.403,269.600 262.159,269.600 262.005 C 269.600 261.850,267.231 261.603,264.335 261.457 C 261.439 261.310,258.874 261.042,258.635 260.861 C 258.396 260.680,257.210 260.315,256.000 260.048 C 254.460 259.710,253.578 259.261,253.059 258.552 L 252.317 257.540 258.059 257.765 C 261.216 257.889,265.312 258.097,267.159 258.228 L 270.519 258.465 270.294 256.332 C 270.170 255.160,269.784 253.660,269.437 253.000 C 269.089 252.340,268.804 251.575,268.802 251.300 C 268.801 251.025,268.640 250.800,268.443 250.800 C 268.247 250.800,267.982 250.395,267.853 249.900 C 267.235 247.516,260.305 242.400,257.693 242.400 C 257.202 242.400,256.800 242.240,256.800 242.045 C 256.800 241.850,255.945 241.564,254.900 241.408 C 253.855 241.252,252.820 240.987,252.600 240.818 C 252.380 240.649,251.660 240.385,251.000 240.233 C 247.457 239.413,246.628 238.383,249.700 238.618 C 250.855 238.707,253.129 238.865,254.753 238.971 L 257.707 239.162 257.432 236.481 C 257.281 235.007,256.912 233.307,256.612 232.704 C 256.311 232.101,255.946 231.066,255.801 230.404 C 255.655 229.742,255.379 229.200,255.186 229.200 C 254.994 229.200,254.718 228.570,254.574 227.800 C 254.429 227.030,254.174 226.400,254.007 226.400 C 253.841 226.400,253.477 225.590,253.200 224.600 C 252.923 223.610,252.548 222.800,252.366 222.800 C 252.185 222.800,251.918 222.170,251.774 221.400 C 251.629 220.630,251.365 220.000,251.187 220.000 C 251.009 220.000,250.745 219.460,250.600 218.800 C 250.455 218.140,250.185 217.600,250.000 217.600 C 249.815 217.600,249.539 217.015,249.386 216.300 C 249.234 215.585,248.770 214.245,248.355 213.322 C 247.940 212.399,247.600 211.199,247.600 210.655 C 247.600 210.112,247.402 209.601,247.161 209.520 C 246.919 209.440,246.800 208.930,246.896 208.387 C 247.066 207.431,247.087 207.441,247.575 208.700 C 247.852 209.415,248.221 210.000,248.396 210.000 C 248.570 210.000,248.834 210.481,248.981 211.068 C 249.129 211.656,249.598 212.580,250.025 213.122 C 250.451 213.664,250.800 214.354,250.800 214.654 C 250.800 214.954,250.960 215.200,251.157 215.200 C 251.353 215.200,251.626 215.650,251.764 216.200 C 251.902 216.750,252.192 217.200,252.408 217.200 C 252.623 217.200,252.800 217.394,252.800 217.630 C 252.800 218.054,255.911 223.611,256.366 224.000 C 256.691 224.277,257.480 225.557,258.277 227.100 C 258.646 227.815,259.095 228.400,259.274 228.400 C 259.453 228.400,259.600 228.633,259.600 228.919 C 259.600 229.487,260.601 230.924,261.700 231.934 C 262.085 232.288,262.400 232.725,262.400 232.905 C 262.400 233.363,264.096 235.733,264.700 236.120 C 264.975 236.296,265.200 236.686,265.200 236.987 C 265.200 237.287,265.335 237.593,265.500 237.667 C 265.665 237.740,266.301 238.430,266.914 239.200 C 269.608 242.584,270.319 243.406,272.300 245.425 C 273.455 246.602,274.400 247.684,274.400 247.829 C 274.400 248.106,277.662 251.584,279.939 253.735 C 280.675 254.431,281.575 255.335,281.939 255.743 C 283.572 257.580,288.463 262.120,290.187 263.400 C 290.779 263.840,291.478 264.380,291.738 264.600 C 293.461 266.054,295.200 266.551,295.821 265.767 C 296.873 264.439,298.301 261.071,298.605 259.200 C 298.766 258.210,299.101 257.272,299.349 257.115 C 299.950 256.735,299.986 238.099,299.387 237.685 C 299.159 237.528,298.738 236.231,298.451 234.801 C 298.163 233.372,297.787 232.112,297.614 232.001 C 297.442 231.891,297.174 231.215,297.018 230.500 C 296.863 229.785,296.574 229.200,296.376 229.200 C 296.178 229.200,295.902 228.750,295.764 228.200 C 295.626 227.650,295.365 227.200,295.184 227.200 C 295.002 227.200,294.734 226.822,294.587 226.361 C 294.270 225.362,288.057 218.800,287.428 218.800 C 287.188 218.800,286.545 218.260,286.000 217.600 C 285.455 216.940,284.776 216.400,284.492 216.400 C 284.208 216.400,283.878 216.146,283.759 215.837 C 283.640 215.527,283.015 215.055,282.371 214.788 C 281.727 214.521,281.200 214.139,281.200 213.939 C 281.200 213.739,280.885 213.455,280.500 213.308 C 280.115 213.161,279.371 212.644,278.846 212.159 C 278.321 211.674,277.421 211.035,276.846 210.739 C 276.271 210.443,275.710 210.089,275.600 209.953 C 275.214 209.473,268.765 205.200,268.427 205.200 C 268.239 205.200,267.982 204.930,267.855 204.600 C 267.729 204.270,267.349 204.000,267.013 204.000 C 266.676 204.000,266.400 203.842,266.400 203.649 C 266.400 203.455,265.860 203.073,265.200 202.800 C 264.540 202.527,264.000 202.145,264.000 201.951 C 264.000 201.758,263.739 201.600,263.420 201.600 C 263.101 201.600,262.696 201.375,262.520 201.100 C 262.153 200.527,261.198 199.893,259.200 198.898 C 258.430 198.514,257.581 198.020,257.314 197.800 C 256.148 196.841,255.743 196.566,254.800 196.095 C 254.250 195.820,253.080 195.138,252.200 194.580 C 251.320 194.022,250.285 193.463,249.900 193.336 C 249.515 193.210,249.200 192.967,249.200 192.797 C 249.200 192.626,248.707 192.363,248.104 192.212 C 247.501 192.060,246.916 191.816,246.803 191.668 C 245.661 190.175,239.600 188.565,239.600 189.755 M125.847 356.300 C 125.067 367.098,125.111 376.516,125.963 381.269 C 126.423 383.837,126.800 386.132,126.800 386.369 C 126.800 386.606,127.160 386.800,127.600 386.800 C 128.040 386.800,128.400 386.966,128.400 387.168 C 128.400 387.371,128.985 387.664,129.700 387.819 C 130.415 387.975,131.355 388.349,131.789 388.651 C 132.223 388.953,132.988 389.200,133.489 389.200 C 133.990 389.200,134.400 389.351,134.400 389.536 C 134.400 389.721,135.435 390.101,136.700 390.381 C 137.965 390.660,139.180 391.028,139.400 391.198 C 139.620 391.368,140.430 391.639,141.200 391.800 C 141.970 391.961,142.780 392.231,143.000 392.401 C 143.220 392.571,144.210 392.840,145.200 393.000 C 146.190 393.160,147.182 393.436,147.405 393.615 C 147.627 393.793,149.292 394.173,151.105 394.458 C 152.917 394.743,154.400 395.099,154.400 395.249 C 154.400 395.399,155.480 395.647,156.801 395.800 C 158.121 395.953,159.293 396.227,159.405 396.408 C 159.517 396.589,160.822 396.863,162.304 397.017 C 163.787 397.171,165.180 397.438,165.400 397.611 C 165.620 397.784,167.960 398.138,170.600 398.398 C 173.240 398.657,175.760 399.025,176.200 399.215 C 179.736 400.743,220.246 400.732,223.800 399.202 C 224.240 399.013,226.670 398.647,229.200 398.388 C 231.730 398.130,233.980 397.774,234.200 397.598 C 234.420 397.423,235.815 397.150,237.300 396.993 C 238.785 396.835,240.000 396.571,240.000 396.405 C 240.000 396.239,240.941 395.978,242.090 395.826 C 243.240 395.673,244.365 395.402,244.590 395.223 C 244.816 395.045,246.257 394.684,247.793 394.421 C 249.328 394.159,250.768 393.797,250.993 393.617 C 251.217 393.438,252.164 393.164,253.098 393.010 C 254.032 392.856,254.885 392.587,254.993 392.411 C 255.101 392.236,256.002 391.971,256.995 391.822 C 257.988 391.673,258.800 391.402,258.800 391.221 C 258.800 391.039,259.570 390.775,260.511 390.634 C 261.451 390.493,262.735 390.111,263.364 389.785 C 263.992 389.459,265.202 389.081,266.053 388.945 C 266.904 388.809,267.600 388.557,267.600 388.384 C 267.600 388.211,268.320 387.949,269.200 387.800 C 270.080 387.651,270.800 387.381,270.800 387.200 C 270.800 387.019,271.475 386.756,272.300 386.617 L 273.800 386.364 273.712 374.282 C 273.664 367.637,273.510 360.157,273.370 357.661 L 273.116 353.122 271.258 353.398 C 270.236 353.550,269.220 353.815,269.000 353.987 C 268.780 354.159,267.745 354.423,266.700 354.574 C 265.655 354.725,264.800 355.018,264.800 355.225 C 264.800 355.431,264.395 355.606,263.900 355.614 C 263.405 355.621,262.280 355.975,261.400 356.400 C 260.520 356.825,259.530 357.185,259.200 357.200 C 258.870 357.215,257.880 357.575,257.000 358.000 C 256.120 358.425,255.085 358.779,254.700 358.786 C 254.315 358.794,254.000 358.957,254.000 359.149 C 254.000 359.341,253.280 359.613,252.400 359.754 C 251.520 359.894,250.800 360.167,250.800 360.360 C 250.800 360.553,250.125 360.836,249.300 360.989 C 248.475 361.141,247.260 361.508,246.600 361.803 C 245.940 362.099,244.770 362.465,244.000 362.616 C 243.230 362.768,242.420 363.028,242.200 363.194 C 241.980 363.360,241.103 363.621,240.251 363.775 C 239.399 363.929,238.409 364.208,238.051 364.394 C 237.279 364.797,230.936 365.889,225.600 366.538 C 223.510 366.792,221.606 367.126,221.369 367.281 C 221.132 367.435,218.111 367.688,214.655 367.842 C 211.199 367.996,208.277 368.275,208.162 368.461 C 207.887 368.906,191.200 368.903,191.200 368.458 C 191.200 368.270,188.548 367.987,185.306 367.829 C 182.064 367.672,179.319 367.403,179.206 367.231 C 179.093 367.060,177.200 366.730,175.000 366.498 C 170.244 365.996,163.323 364.855,162.200 364.388 C 161.760 364.205,160.500 363.936,159.400 363.790 C 158.300 363.644,157.220 363.384,157.000 363.211 C 156.780 363.038,155.610 362.710,154.400 362.482 C 151.544 361.944,147.567 360.879,146.785 360.442 C 146.446 360.253,145.411 359.971,144.485 359.814 C 143.558 359.658,142.800 359.381,142.800 359.200 C 142.800 359.019,142.081 358.749,141.202 358.600 C 140.323 358.452,139.514 358.184,139.403 358.005 C 139.293 357.827,138.302 357.464,137.201 357.200 C 136.101 356.936,135.200 356.578,135.200 356.405 C 135.200 356.231,134.570 355.971,133.800 355.826 C 133.030 355.682,132.400 355.406,132.400 355.214 C 132.400 355.021,131.860 354.745,131.200 354.600 C 130.540 354.455,130.000 354.188,130.000 354.007 C 130.000 353.626,127.805 352.800,126.790 352.800 C 126.209 352.800,126.061 353.350,125.847 356.300 " stroke="none" fill="#5cd31c" fill-rule="evenodd"></path><path id="path2" d="M123.200 14.890 C 122.650 15.135,121.660 15.562,121.000 15.839 C 115.599 18.105,112.317 19.647,111.996 20.068 C 111.884 20.216,111.299 20.460,110.696 20.612 C 110.093 20.763,109.600 21.047,109.600 21.243 C 109.600 21.440,109.393 21.600,109.140 21.600 C 108.680 21.600,104.377 23.616,104.000 24.008 C 103.890 24.123,103.350 24.441,102.800 24.717 C 102.250 24.992,100.720 25.850,99.400 26.624 C 98.080 27.397,96.550 28.246,96.000 28.510 C 95.450 28.775,94.781 29.173,94.514 29.395 C 93.373 30.345,92.926 30.637,91.600 31.298 C 89.602 32.293,88.647 32.927,88.280 33.500 C 88.104 33.775,87.699 34.000,87.380 34.000 C 87.061 34.000,86.800 34.160,86.800 34.357 C 86.800 34.553,86.395 34.816,85.900 34.942 C 85.405 35.068,84.404 35.717,83.675 36.385 C 82.947 37.053,82.218 37.600,82.057 37.600 C 81.728 37.600,80.299 38.634,79.153 39.700 C 78.739 40.085,78.236 40.400,78.036 40.400 C 77.835 40.400,77.217 40.940,76.661 41.600 C 76.106 42.260,75.475 42.800,75.258 42.800 C 74.801 42.800,72.609 44.696,68.668 48.500 C 67.130 49.985,65.734 51.200,65.566 51.200 C 65.399 51.200,64.722 51.740,64.062 52.400 C 63.402 53.060,62.731 53.600,62.572 53.600 C 61.946 53.600,48.813 67.644,46.200 71.108 C 45.980 71.400,45.520 71.945,45.179 72.319 C 44.837 72.694,43.577 74.257,42.379 75.792 C 41.180 77.328,39.930 78.882,39.600 79.245 C 38.420 80.544,37.600 81.771,37.600 82.239 C 37.600 82.500,37.330 82.818,37.000 82.945 C 36.670 83.071,36.400 83.451,36.400 83.787 C 36.400 84.124,36.216 84.400,35.991 84.400 C 35.767 84.400,35.365 84.895,35.100 85.500 C 34.834 86.105,34.388 86.744,34.108 86.920 C 33.829 87.096,33.600 87.501,33.600 87.820 C 33.600 88.139,33.441 88.400,33.247 88.400 C 33.052 88.400,32.778 88.715,32.637 89.100 C 32.496 89.485,31.939 90.520,31.398 91.400 C 30.858 92.280,30.189 93.450,29.913 94.000 C 29.636 94.550,29.221 95.199,28.991 95.442 C 28.761 95.686,28.128 96.761,27.586 97.832 C 27.044 98.903,26.420 99.977,26.200 100.219 C 25.980 100.461,25.440 101.366,25.000 102.229 C 24.560 103.093,23.989 103.936,23.731 104.102 C 23.473 104.269,23.144 104.944,22.999 105.602 C 22.855 106.261,22.590 106.800,22.412 106.800 C 22.233 106.800,21.963 107.293,21.812 107.896 C 21.660 108.499,21.416 109.084,21.268 109.196 C 20.756 109.585,17.600 116.453,17.600 117.178 C 17.600 117.410,17.428 117.600,17.218 117.600 C 17.008 117.600,16.718 118.230,16.574 119.000 C 16.429 119.770,16.181 120.400,16.023 120.400 C 15.767 120.400,14.910 123.218,14.685 124.800 C 14.588 125.484,15.292 125.548,34.239 126.558 C 40.640 126.899,46.159 127.286,46.502 127.418 C 46.912 127.575,47.218 127.372,47.391 126.829 C 47.536 126.373,47.822 126.000,48.027 126.000 C 48.232 126.000,48.400 125.724,48.400 125.387 C 48.400 125.051,48.670 124.671,49.000 124.545 C 49.330 124.418,49.600 124.162,49.600 123.975 C 49.600 123.687,50.828 121.655,51.894 120.176 C 52.263 119.666,53.343 117.707,54.749 115.000 C 55.321 113.900,56.016 112.762,56.294 112.471 C 56.572 112.181,56.800 111.686,56.800 111.371 C 56.800 111.057,56.977 110.800,57.192 110.800 C 57.408 110.800,57.698 110.350,57.836 109.800 C 57.974 109.250,58.225 108.800,58.395 108.800 C 58.564 108.800,58.942 108.223,59.234 107.517 C 59.527 106.812,60.043 105.942,60.383 105.586 C 61.649 104.255,62.800 102.784,62.800 102.497 C 62.801 102.236,63.618 101.157,65.282 99.221 C 65.555 98.903,66.449 97.733,67.268 96.621 C 68.087 95.510,69.217 94.116,69.778 93.526 C 70.340 92.935,70.800 92.254,70.800 92.013 C 70.800 91.772,71.055 91.477,71.366 91.358 C 71.678 91.238,72.407 90.456,72.987 89.619 C 75.268 86.328,87.001 74.586,90.789 71.804 C 91.552 71.243,92.326 70.518,92.508 70.192 C 92.691 69.866,93.025 69.600,93.251 69.600 C 93.477 69.600,94.190 69.071,94.836 68.425 C 95.483 67.779,96.352 67.142,96.769 67.010 C 97.185 66.878,97.627 66.506,97.750 66.185 C 97.874 65.863,98.185 65.600,98.442 65.600 C 98.698 65.600,99.325 65.150,99.835 64.600 C 100.345 64.050,100.883 63.600,101.030 63.600 C 101.178 63.600,102.482 62.745,103.929 61.700 C 105.376 60.655,107.054 59.530,107.657 59.200 C 108.260 58.870,110.451 57.584,112.525 56.343 C 114.600 55.102,116.680 53.965,117.149 53.816 C 117.617 53.668,118.000 53.398,118.000 53.216 C 118.000 53.035,118.450 52.774,119.000 52.636 C 119.550 52.498,120.000 52.208,120.000 51.992 C 120.000 51.777,120.184 51.600,120.409 51.600 C 120.797 51.600,123.977 49.668,124.400 49.175 C 124.510 49.046,124.915 48.825,125.300 48.683 C 125.952 48.443,125.997 47.337,125.953 32.713 C 125.895 13.610,125.907 13.684,123.200 14.890 M274.023 15.300 C 273.552 16.044,273.472 18.725,273.558 30.800 C 273.627 40.324,273.517 45.782,273.241 46.500 C 272.899 47.393,272.931 47.600,273.410 47.600 C 273.734 47.600,274.000 47.786,274.000 48.013 C 274.000 48.239,274.315 48.544,274.700 48.690 C 275.085 48.836,275.619 49.145,275.886 49.378 C 277.087 50.421,277.530 50.712,279.600 51.821 C 280.810 52.470,281.890 53.106,282.000 53.235 C 282.110 53.364,283.100 53.985,284.200 54.615 C 285.300 55.246,286.290 55.864,286.400 55.989 C 286.510 56.114,287.050 56.440,287.600 56.712 C 288.150 56.985,289.140 57.565,289.800 58.000 C 290.460 58.435,291.405 59.002,291.900 59.260 C 292.395 59.518,292.800 59.880,292.800 60.064 C 292.800 60.249,292.978 60.400,293.196 60.400 C 293.413 60.400,294.628 61.120,295.896 61.999 C 297.163 62.879,298.406 63.599,298.657 63.599 C 298.909 63.600,299.211 63.852,299.329 64.160 C 299.448 64.468,300.547 65.386,301.772 66.199 C 302.997 67.012,304.000 67.828,304.000 68.012 C 304.000 68.196,304.315 68.448,304.700 68.572 C 305.330 68.776,306.472 69.689,309.638 72.519 C 310.208 73.030,311.608 74.233,312.747 75.194 C 315.196 77.259,322.881 84.859,324.033 86.355 C 325.024 87.642,328.184 91.269,329.800 92.976 C 330.460 93.673,331.255 94.728,331.568 95.321 C 331.880 95.915,332.285 96.400,332.468 96.400 C 332.650 96.400,332.800 96.630,332.800 96.911 C 332.800 97.192,333.115 97.720,333.500 98.083 C 334.348 98.884,334.658 99.287,336.200 101.600 C 336.860 102.590,337.625 103.638,337.900 103.929 C 338.175 104.219,338.400 104.637,338.400 104.857 C 338.400 105.077,338.625 105.508,338.900 105.815 C 339.982 107.021,340.266 107.448,340.820 108.700 C 341.136 109.415,341.531 110.000,341.698 110.000 C 341.864 110.000,342.000 110.242,342.000 110.539 C 342.000 110.835,342.360 111.493,342.800 112.000 C 343.240 112.507,343.600 113.165,343.600 113.461 C 343.600 113.758,343.735 114.001,343.900 114.001 C 344.065 114.002,344.740 115.034,345.400 116.293 C 346.553 118.495,346.905 119.050,347.817 120.114 C 348.046 120.381,348.473 121.185,348.765 121.900 C 349.058 122.615,349.416 123.200,349.561 123.200 C 349.706 123.200,350.051 123.695,350.328 124.300 C 351.256 126.328,351.788 127.200,352.095 127.200 C 352.263 127.200,352.400 127.470,352.400 127.800 C 352.400 128.643,353.193 128.546,354.225 127.577 C 355.813 126.085,358.463 125.692,364.605 126.038 C 367.682 126.211,373.009 126.364,376.442 126.377 L 382.685 126.400 384.518 127.800 C 386.377 129.219,387.200 129.526,387.200 128.800 C 387.200 128.580,387.020 128.400,386.800 128.400 C 386.580 128.400,386.400 128.082,386.400 127.694 C 386.400 127.306,386.053 126.340,385.628 125.548 C 385.204 124.756,384.734 123.454,384.584 122.654 C 384.434 121.854,384.171 121.200,383.999 121.200 C 383.827 121.200,383.563 120.705,383.411 120.100 C 383.016 118.519,377.983 108.400,377.592 108.400 C 377.411 108.400,377.145 107.858,376.999 107.196 C 376.854 106.534,376.524 105.765,376.267 105.489 C 376.010 105.212,375.350 104.089,374.800 102.993 C 374.250 101.897,373.702 100.910,373.583 100.800 C 373.463 100.690,372.849 99.565,372.217 98.300 C 371.586 97.035,370.931 96.000,370.762 96.000 C 370.592 96.000,370.328 95.595,370.173 95.100 C 370.019 94.605,369.777 94.110,369.637 94.000 C 369.497 93.890,368.579 92.540,367.596 91.000 C 366.613 89.460,365.582 87.962,365.305 87.671 C 365.027 87.381,364.800 86.974,364.800 86.767 C 364.800 86.417,362.162 82.441,361.636 82.000 C 361.505 81.890,360.858 80.990,360.199 80.000 C 359.539 79.010,358.865 78.140,358.700 78.067 C 358.535 77.993,358.400 77.685,358.400 77.381 C 358.400 77.077,358.040 76.635,357.600 76.400 C 357.160 76.165,356.796 75.753,356.791 75.486 C 356.786 75.219,356.201 74.342,355.491 73.538 C 354.781 72.734,353.750 71.481,353.200 70.755 C 352.650 70.028,351.525 68.729,350.700 67.869 C 349.875 67.009,349.200 66.144,349.200 65.946 C 349.200 65.506,338.410 54.800,337.967 54.800 C 337.793 54.800,336.685 53.855,335.504 52.700 C 334.323 51.545,332.388 49.790,331.203 48.800 C 330.019 47.810,327.956 46.010,326.620 44.800 C 325.284 43.590,323.598 42.150,322.873 41.600 C 322.149 41.050,321.071 40.195,320.478 39.700 C 319.885 39.206,319.175 38.801,318.900 38.800 C 318.625 38.800,318.400 38.641,318.400 38.447 C 318.400 38.253,317.185 37.312,315.700 36.356 C 314.215 35.400,312.910 34.524,312.800 34.409 C 312.245 33.829,309.980 32.400,309.616 32.400 C 309.387 32.400,309.200 32.253,309.200 32.074 C 309.200 31.895,308.615 31.446,307.900 31.077 C 306.280 30.240,305.194 29.547,304.488 28.900 C 304.188 28.625,303.686 28.400,303.371 28.400 C 303.057 28.400,302.800 28.232,302.800 28.026 C 302.800 27.820,302.170 27.424,301.400 27.146 C 300.630 26.867,300.000 26.495,300.000 26.320 C 300.000 26.144,299.758 26.000,299.461 26.000 C 299.165 26.000,298.507 25.640,298.000 25.200 C 297.493 24.760,296.850 24.400,296.572 24.400 C 296.294 24.400,296.007 24.265,295.933 24.100 C 295.860 23.935,294.630 23.218,293.200 22.506 C 291.770 21.794,289.790 20.784,288.800 20.261 C 285.998 18.782,283.357 17.600,282.856 17.600 C 282.605 17.600,282.400 17.428,282.400 17.218 C 282.400 17.008,281.768 16.718,280.996 16.573 C 280.223 16.428,279.502 16.165,279.393 15.989 C 279.285 15.814,278.478 15.548,277.600 15.400 C 276.722 15.252,275.903 14.966,275.778 14.765 C 275.387 14.132,274.613 14.367,274.023 15.300 M168.000 119.542 C 168.000 119.730,166.836 119.993,165.414 120.126 C 163.992 120.259,162.022 120.735,161.036 121.184 C 160.050 121.633,159.054 122.000,158.822 122.000 C 158.590 122.000,158.400 122.139,158.400 122.309 C 158.400 122.479,157.752 122.967,156.959 123.394 C 155.241 124.319,152.400 126.919,152.400 127.566 C 152.400 127.819,152.139 128.125,151.819 128.248 C 151.500 128.370,151.027 129.130,150.767 129.935 C 150.508 130.741,150.094 131.653,149.848 131.961 C 149.260 132.699,149.237 142.319,149.823 142.715 C 150.055 142.872,150.483 143.587,150.773 144.303 C 151.063 145.020,152.520 146.820,154.012 148.303 C 156.969 151.245,156.981 151.254,159.600 152.999 C 160.590 153.658,161.490 154.294,161.600 154.411 C 162.347 155.206,168.240 157.725,169.752 157.896 C 170.769 158.010,171.600 158.261,171.600 158.452 C 171.600 158.643,172.275 158.818,173.100 158.840 C 174.155 158.868,174.362 158.957,173.798 159.140 C 169.776 160.444,163.504 166.051,162.698 169.064 C 162.443 170.019,162.091 170.800,161.917 170.800 C 161.743 170.800,161.600 172.330,161.600 174.200 C 161.600 176.070,161.758 177.600,161.950 177.600 C 162.143 177.600,162.408 178.142,162.541 178.804 C 162.921 180.705,165.671 184.073,168.590 186.212 C 169.607 186.957,170.872 187.945,171.831 188.744 C 172.068 188.941,172.663 189.229,173.153 189.385 C 174.162 189.705,174.106 190.338,173.012 190.971 C 172.333 191.365,169.956 193.689,169.000 194.896 C 165.772 198.966,165.834 208.832,169.100 210.920 C 169.375 211.096,169.600 211.405,169.600 211.607 C 169.600 212.044,172.297 214.800,172.724 214.800 C 172.888 214.800,173.330 215.160,173.707 215.600 C 174.084 216.040,174.664 216.400,174.996 216.400 C 175.328 216.400,175.600 216.577,175.600 216.792 C 175.600 217.008,176.050 217.298,176.600 217.436 C 177.150 217.574,177.600 217.833,177.600 218.012 C 177.600 218.190,178.140 218.455,178.800 218.600 C 180.214 218.910,180.270 219.166,179.200 220.400 C 178.760 220.907,178.400 221.546,178.400 221.818 C 178.400 222.091,178.130 222.418,177.800 222.545 C 177.470 222.671,177.200 223.051,177.200 223.387 C 177.200 223.724,177.020 224.000,176.800 224.000 C 176.580 224.000,176.400 224.190,176.400 224.421 C 176.400 224.653,175.950 225.505,175.400 226.314 C 174.850 227.123,174.400 228.194,174.400 228.693 C 174.400 229.192,174.220 229.600,174.000 229.600 C 173.506 229.600,173.464 233.869,173.955 234.172 C 174.150 234.293,174.428 235.023,174.573 235.796 C 174.718 236.568,174.964 237.200,175.120 237.200 C 175.277 237.200,175.661 237.778,175.974 238.485 C 176.286 239.192,176.960 240.157,177.471 240.631 C 177.982 241.104,178.400 241.620,178.400 241.777 C 178.400 242.473,181.702 245.240,182.793 245.459 C 183.457 245.591,184.000 245.869,184.000 246.077 C 184.000 246.284,184.495 246.396,185.100 246.327 C 186.241 246.195,187.032 243.050,186.077 242.440 C 185.871 242.308,185.634 239.788,185.551 236.839 L 185.400 231.478 186.649 230.839 C 187.337 230.488,188.164 229.739,188.488 229.175 C 188.939 228.390,189.956 227.857,192.838 226.896 C 194.907 226.206,197.590 225.259,198.800 224.791 C 200.010 224.323,201.540 223.762,202.200 223.544 C 203.744 223.034,207.356 223.068,207.532 223.595 C 207.606 223.818,208.030 224.000,208.473 224.000 C 211.527 224.000,213.002 228.467,212.997 237.700 C 212.993 244.686,212.979 244.656,215.508 243.056 C 217.883 241.554,219.617 239.536,220.110 237.700 C 220.361 236.765,220.709 236.000,220.883 236.000 C 221.057 236.000,221.200 234.650,221.200 233.000 C 221.200 231.350,221.063 230.000,220.895 230.000 C 220.727 230.000,220.365 229.055,220.091 227.900 C 219.817 226.745,219.414 225.740,219.196 225.667 C 218.978 225.593,218.800 225.323,218.800 225.065 C 218.800 224.808,217.900 223.788,216.800 222.800 C 214.716 220.927,214.404 220.400,215.380 220.400 C 215.699 220.400,216.104 220.171,216.280 219.890 C 216.456 219.610,217.115 219.053,217.744 218.652 C 218.373 218.252,219.483 217.311,220.211 216.562 C 220.938 215.813,221.676 215.200,221.852 215.200 C 222.366 215.200,225.600 211.878,225.600 211.350 C 225.600 211.084,225.735 210.807,225.900 210.733 C 227.768 209.903,228.744 198.326,227.100 196.510 C 226.715 196.085,226.392 195.571,226.382 195.369 C 226.371 195.166,225.912 194.640,225.361 194.200 C 224.810 193.760,223.981 193.085,223.519 192.700 C 223.056 192.315,222.075 192.000,221.339 192.000 C 220.602 192.000,220.000 191.820,220.000 191.600 C 220.000 191.380,219.595 191.186,219.100 191.168 C 218.501 191.147,218.398 191.059,218.793 190.904 C 219.119 190.776,219.627 190.430,219.921 190.136 C 220.216 189.841,220.828 189.600,221.281 189.600 C 222.115 189.600,224.888 188.101,225.133 187.517 C 225.207 187.343,225.527 187.200,225.846 187.200 C 226.164 187.200,226.529 186.930,226.655 186.600 C 226.782 186.270,227.091 185.995,227.343 185.988 C 228.040 185.970,230.285 183.792,230.587 182.841 C 230.734 182.379,230.987 182.000,231.150 182.000 C 232.846 182.000,233.757 171.587,232.287 169.000 C 231.912 168.340,231.604 167.601,231.602 167.358 C 231.601 167.116,231.150 166.431,230.600 165.838 C 230.050 165.244,229.600 164.614,229.600 164.438 C 229.600 163.063,225.114 160.422,222.662 160.354 C 221.748 160.328,221.315 160.225,221.700 160.124 C 222.085 160.024,222.400 159.783,222.400 159.589 C 222.400 159.395,223.030 159.118,223.800 158.974 C 224.570 158.829,225.200 158.565,225.200 158.387 C 225.200 158.209,225.738 157.945,226.395 157.801 C 227.053 157.657,227.700 157.361,227.834 157.145 C 227.968 156.928,228.497 156.591,229.008 156.397 C 230.313 155.901,236.755 151.850,238.200 150.617 C 241.553 147.755,242.773 146.554,242.786 146.100 C 242.794 145.825,242.951 145.600,243.135 145.600 C 243.579 145.600,245.600 141.579,245.600 140.694 C 245.600 140.312,245.780 140.000,246.000 140.000 C 246.231 140.000,246.400 138.733,246.400 137.000 C 246.400 135.267,246.231 134.000,246.000 134.000 C 245.780 134.000,245.600 133.607,245.600 133.126 C 245.600 131.971,244.045 128.792,243.349 128.525 C 243.047 128.409,242.800 128.134,242.800 127.914 C 242.800 127.332,241.088 125.615,240.500 125.607 C 240.225 125.603,240.000 125.416,240.000 125.191 C 240.000 124.967,239.505 124.565,238.900 124.300 C 238.295 124.034,237.656 123.588,237.480 123.308 C 237.304 123.029,236.899 122.800,236.580 122.800 C 236.261 122.800,236.000 122.620,236.000 122.400 C 236.000 122.180,235.772 122.000,235.494 122.000 C 235.216 122.000,234.322 121.643,233.509 121.207 C 232.695 120.771,231.299 120.297,230.406 120.155 C 229.513 120.012,228.686 119.739,228.568 119.547 C 228.284 119.089,219.600 119.096,219.600 119.555 C 219.600 119.750,218.803 120.029,217.828 120.175 C 216.854 120.321,215.610 120.791,215.065 121.220 C 214.520 121.649,213.959 122.000,213.818 122.000 C 213.173 122.000,209.603 126.051,209.355 127.064 C 209.202 127.689,208.901 128.315,208.687 128.456 C 207.138 129.470,208.599 136.802,210.349 136.798 C 212.124 136.794,216.128 136.040,216.371 135.663 C 216.497 135.468,217.036 135.172,217.569 135.005 C 218.491 134.717,218.908 134.445,220.183 133.303 C 221.327 132.277,228.800 130.764,228.800 131.558 C 228.800 131.801,229.173 132.000,229.629 132.000 C 230.499 132.000,231.600 132.862,231.600 133.543 C 231.600 133.763,231.853 134.196,232.163 134.506 C 233.430 135.772,233.663 141.198,232.451 141.200 C 232.313 141.201,231.660 141.647,231.000 142.193 C 230.340 142.738,229.620 143.332,229.400 143.512 C 229.180 143.693,228.685 143.961,228.300 144.108 C 227.915 144.255,227.600 144.537,227.600 144.735 C 227.600 144.934,226.790 145.323,225.800 145.600 C 224.810 145.877,224.000 146.261,224.000 146.452 C 224.000 146.643,223.775 146.806,223.500 146.814 C 223.225 146.821,222.280 147.175,221.400 147.600 C 220.520 148.025,219.485 148.379,219.100 148.386 C 218.715 148.394,218.400 148.560,218.400 148.755 C 218.400 148.950,217.228 149.331,215.795 149.601 C 214.362 149.871,213.103 150.234,212.996 150.407 C 212.889 150.580,211.701 150.849,210.356 151.005 C 208.789 151.187,207.640 151.560,207.156 152.044 C 206.740 152.460,206.032 152.800,205.583 152.800 C 204.790 152.800,203.910 152.961,194.602 154.809 C 191.928 155.340,189.548 155.592,188.531 155.453 C 187.403 155.298,186.794 155.382,186.661 155.712 C 186.552 155.980,186.449 155.806,186.432 155.324 C 186.414 154.842,186.220 154.336,186.000 154.200 C 185.780 154.064,185.597 153.648,185.593 153.276 C 185.578 151.812,183.127 150.499,178.300 149.370 C 177.695 149.229,177.200 148.953,177.200 148.757 C 177.200 148.560,176.784 148.400,176.276 148.400 C 175.769 148.400,175.004 148.136,174.576 147.813 C 174.149 147.490,173.530 147.216,173.200 147.205 C 172.429 147.179,167.702 144.787,165.979 143.550 C 163.009 141.419,162.400 140.229,162.400 136.553 C 162.400 133.270,163.746 132.000,167.226 132.000 C 167.835 132.000,168.424 131.775,168.535 131.500 C 168.696 131.100,168.743 131.100,168.768 131.500 C 168.786 131.776,169.312 132.000,169.940 132.000 C 171.321 132.000,173.600 132.752,173.600 133.207 C 173.600 133.388,174.125 133.652,174.767 133.793 C 175.408 133.934,176.033 134.308,176.154 134.624 C 176.276 134.941,176.707 135.200,177.112 135.200 C 178.107 135.200,181.200 136.721,181.200 137.209 C 181.200 137.424,181.650 137.600,182.200 137.600 C 182.750 137.600,183.200 137.420,183.200 137.200 C 183.200 136.980,183.568 136.800,184.017 136.800 C 186.170 136.800,187.981 129.259,186.115 128.061 C 185.891 127.918,185.572 127.364,185.405 126.831 C 185.085 125.807,184.735 125.308,183.337 123.881 C 182.008 122.523,180.693 121.600,180.090 121.600 C 179.789 121.600,179.286 121.343,178.972 121.029 C 178.658 120.715,177.365 120.346,176.100 120.209 C 174.835 120.073,173.487 119.790,173.105 119.580 C 172.241 119.107,168.000 119.075,168.000 119.542 M75.400 152.848 C 74.740 153.363,74.139 153.927,74.064 154.100 C 73.990 154.273,73.709 154.636,73.440 154.907 C 73.172 155.178,72.423 156.390,71.776 157.600 C 71.129 158.810,70.506 159.890,70.391 160.000 C 69.774 160.590,68.815 162.458,68.374 163.929 C 68.099 164.848,67.736 165.600,67.568 165.600 C 67.401 165.600,67.145 166.140,67.000 166.800 C 66.855 167.460,66.579 168.000,66.386 168.000 C 66.194 168.000,65.918 168.630,65.774 169.400 C 65.629 170.170,65.368 170.800,65.192 170.800 C 65.017 170.800,64.643 171.700,64.361 172.800 C 64.079 173.900,63.703 174.800,63.524 174.800 C 63.346 174.800,63.194 175.115,63.186 175.500 C 63.179 175.885,62.825 176.920,62.400 177.800 C 61.975 178.680,61.621 179.769,61.614 180.220 C 61.606 180.671,61.417 181.223,61.193 181.447 C 60.969 181.671,60.590 182.967,60.350 184.327 C 60.111 185.687,59.774 186.800,59.603 186.800 C 59.432 186.800,59.169 187.787,59.018 188.994 C 58.867 190.200,58.595 191.280,58.413 191.392 C 58.231 191.505,57.952 192.903,57.793 194.498 C 57.634 196.094,57.363 197.490,57.191 197.600 C 55.675 198.568,55.683 234.247,57.200 236.200 C 57.371 236.420,57.641 237.770,57.800 239.200 C 57.959 240.630,58.227 241.980,58.395 242.200 C 58.564 242.420,58.826 243.635,58.979 244.900 C 59.132 246.165,59.396 247.200,59.565 247.200 C 59.734 247.200,60.102 248.505,60.382 250.100 C 60.663 251.695,61.031 253.180,61.200 253.400 C 61.369 253.620,61.633 254.385,61.786 255.100 C 61.938 255.815,62.209 256.400,62.386 256.400 C 62.564 256.400,62.831 257.210,62.979 258.200 C 63.128 259.190,63.400 260.000,63.585 260.000 C 63.769 260.000,64.136 260.900,64.400 262.000 C 64.664 263.100,65.034 264.000,65.222 264.000 C 65.410 264.000,65.682 264.630,65.826 265.400 C 65.971 266.170,66.235 266.800,66.413 266.800 C 66.591 266.800,66.855 267.340,67.000 268.000 C 67.145 268.660,67.400 269.200,67.568 269.200 C 67.735 269.200,68.110 269.920,68.400 270.800 C 68.690 271.680,69.065 272.400,69.232 272.400 C 69.400 272.400,69.655 272.940,69.800 273.600 C 69.945 274.260,70.208 274.800,70.385 274.800 C 70.562 274.800,70.822 275.115,70.963 275.500 C 71.104 275.885,71.620 276.859,72.110 277.664 C 72.599 278.469,73.524 279.999,74.165 281.064 C 74.806 282.129,75.454 283.090,75.605 283.200 C 75.757 283.310,76.112 283.839,76.394 284.375 C 76.677 284.911,77.069 285.541,77.265 285.775 C 77.462 286.009,78.590 287.513,79.772 289.118 C 80.954 290.722,82.363 292.445,82.903 292.945 C 83.443 293.446,83.956 294.044,84.043 294.275 C 84.617 295.806,97.655 308.966,100.035 310.417 C 100.871 310.926,102.281 312.057,103.632 313.300 C 104.290 313.905,104.973 314.400,105.152 314.400 C 105.330 314.400,105.802 314.760,106.200 315.200 C 106.598 315.640,107.172 316.000,107.475 316.000 C 107.777 316.000,108.129 316.270,108.255 316.600 C 108.382 316.930,108.663 317.200,108.880 317.200 C 109.096 317.200,109.686 317.515,110.191 317.900 C 110.695 318.285,111.443 318.822,111.854 319.093 C 112.264 319.364,113.283 320.039,114.118 320.593 C 114.953 321.147,115.793 321.600,115.984 321.600 C 116.176 321.600,116.393 321.735,116.467 321.900 C 116.628 322.262,117.916 322.984,122.400 325.223 C 124.270 326.157,125.860 327.074,125.933 327.260 C 126.007 327.447,126.277 327.606,126.533 327.613 C 126.790 327.619,127.900 328.068,129.000 328.609 C 130.100 329.150,131.225 329.594,131.500 329.596 C 131.775 329.598,132.000 329.760,132.000 329.955 C 132.000 330.151,132.630 330.429,133.400 330.574 C 134.170 330.718,134.800 331.000,134.800 331.200 C 134.800 331.400,135.432 331.682,136.204 331.827 C 136.977 331.972,137.700 332.238,137.811 332.418 C 137.923 332.598,139.001 332.967,140.207 333.236 C 141.413 333.506,142.400 333.879,142.400 334.064 C 142.400 334.249,142.664 334.400,142.986 334.400 C 143.308 334.400,144.343 334.651,145.286 334.959 C 149.836 336.442,152.800 337.209,154.900 337.448 C 156.165 337.592,157.200 337.848,157.200 338.016 C 157.200 338.184,158.325 338.449,159.700 338.605 C 161.075 338.761,162.380 339.031,162.600 339.204 C 162.820 339.377,164.620 339.649,166.600 339.807 C 168.580 339.966,170.403 340.257,170.651 340.456 C 171.351 341.016,190.794 341.311,196.000 340.841 C 203.788 340.138,208.172 339.585,208.832 339.224 C 209.179 339.034,210.664 338.750,212.132 338.593 C 213.599 338.435,214.800 338.173,214.800 338.008 C 214.800 337.844,215.803 337.592,217.030 337.448 C 218.256 337.304,219.869 336.931,220.614 336.620 C 221.360 336.308,222.786 335.931,223.785 335.781 C 224.783 335.632,225.600 335.370,225.600 335.200 C 225.600 335.030,226.410 334.769,227.400 334.621 C 228.390 334.472,229.200 334.211,229.200 334.039 C 229.200 333.868,230.190 333.490,231.400 333.200 C 232.610 332.910,233.600 332.521,233.600 332.336 C 233.600 332.151,234.005 331.994,234.500 331.986 C 234.995 331.979,236.120 331.625,237.000 331.200 C 237.880 330.775,238.825 330.421,239.100 330.414 C 239.375 330.406,239.600 330.240,239.600 330.043 C 239.600 329.847,240.095 329.571,240.700 329.429 C 242.170 329.085,245.600 327.481,245.600 327.137 C 245.600 326.987,246.140 326.745,246.800 326.600 C 247.460 326.455,248.000 326.190,248.000 326.012 C 248.000 325.833,248.443 325.575,248.985 325.439 C 249.527 325.303,251.042 324.564,252.353 323.796 C 253.663 323.028,254.852 322.400,254.996 322.400 C 255.140 322.400,255.508 322.175,255.815 321.900 C 257.021 320.818,257.448 320.534,258.700 319.980 C 259.415 319.664,260.000 319.269,260.000 319.102 C 260.000 318.936,260.276 318.800,260.613 318.800 C 260.949 318.800,261.329 318.530,261.455 318.200 C 261.582 317.870,261.900 317.600,262.161 317.600 C 262.643 317.600,263.905 316.746,265.208 315.539 C 265.600 315.176,266.299 314.759,266.761 314.613 C 267.222 314.466,267.600 314.178,267.600 313.973 C 267.600 313.768,267.861 313.600,268.180 313.600 C 268.499 313.600,268.904 313.359,269.080 313.065 C 269.256 312.770,269.750 312.338,270.178 312.105 C 272.553 310.811,287.398 296.007,287.934 294.399 C 288.018 294.146,288.605 293.367,289.237 292.669 C 291.379 290.304,291.579 290.022,291.833 289.010 C 291.973 288.455,292.233 288.000,292.412 288.000 C 292.590 288.000,292.855 287.460,293.000 286.800 C 293.145 286.140,293.429 285.600,293.632 285.600 C 294.662 285.600,293.986 282.589,292.842 282.083 C 291.465 281.473,283.398 281.343,282.683 281.919 C 282.417 282.133,281.615 282.433,280.900 282.586 C 280.185 282.738,279.600 282.992,279.600 283.148 C 279.600 283.305,278.642 283.918,277.471 284.511 C 276.300 285.104,274.894 286.086,274.346 286.694 C 273.799 287.302,272.843 288.160,272.222 288.600 C 271.602 289.040,269.597 290.885,267.768 292.700 C 265.939 294.515,264.323 296.000,264.178 296.000 C 264.032 296.000,263.034 296.855,261.959 297.900 C 259.605 300.189,257.817 301.600,257.270 301.600 C 257.048 301.600,256.807 301.735,256.733 301.900 C 256.557 302.298,254.384 303.785,253.500 304.114 C 253.115 304.258,252.800 304.546,252.800 304.756 C 252.800 304.965,252.260 305.255,251.600 305.400 C 250.940 305.545,250.400 305.810,250.400 305.988 C 250.400 306.167,249.907 306.437,249.304 306.588 C 248.701 306.740,248.116 306.984,248.004 307.132 C 247.661 307.583,244.239 309.201,243.600 309.215 C 243.270 309.222,242.280 309.575,241.400 310.000 C 240.520 310.425,239.485 310.779,239.100 310.786 C 238.715 310.794,238.400 310.962,238.400 311.160 C 238.400 311.358,237.455 311.711,236.300 311.944 C 235.145 312.178,233.030 312.642,231.600 312.976 C 230.170 313.310,228.426 313.587,227.724 313.592 C 227.022 313.596,226.336 313.780,226.200 314.000 C 225.892 314.498,210.800 314.549,210.800 314.052 C 210.800 313.860,209.675 313.583,208.300 313.435 C 205.988 313.187,200.862 311.712,200.400 311.162 C 200.290 311.030,199.660 310.795,199.000 310.639 C 197.881 310.374,193.720 308.409,191.022 306.871 C 187.772 305.019,185.513 301.200,187.667 301.200 C 188.070 301.200,188.400 301.034,188.400 300.832 C 188.400 300.221,192.779 299.982,205.680 299.889 C 214.872 299.822,218.086 299.674,218.460 299.300 C 218.735 299.025,219.419 298.794,219.980 298.786 C 220.541 298.779,221.720 298.425,222.600 298.000 C 223.480 297.575,224.425 297.221,224.700 297.214 C 224.975 297.206,225.200 297.056,225.200 296.880 C 225.200 296.705,225.830 296.333,226.600 296.054 C 227.370 295.776,228.000 295.380,228.000 295.174 C 228.000 294.968,228.196 294.800,228.437 294.800 C 231.502 294.800,235.536 285.847,234.634 281.043 L 234.364 279.600 231.082 279.594 C 229.277 279.591,222.833 279.806,216.763 280.071 C 205.982 280.542,196.303 280.155,195.000 279.200 C 194.780 279.039,193.345 278.784,191.811 278.633 C 190.277 278.483,188.902 278.165,188.755 277.927 C 188.607 277.688,187.618 277.419,186.555 277.328 C 185.493 277.236,184.528 277.010,184.412 276.824 C 184.295 276.639,182.760 276.262,181.000 275.987 C 179.240 275.711,177.589 275.321,177.331 275.120 C 177.073 274.919,174.592 274.647,171.817 274.515 C 169.042 274.384,166.677 274.125,166.562 273.939 C 166.290 273.499,164.509 273.499,164.237 273.939 C 164.122 274.126,162.014 274.385,159.553 274.515 C 157.091 274.645,154.970 274.908,154.839 275.099 C 154.707 275.290,153.241 275.654,151.580 275.906 C 149.919 276.158,148.029 276.641,147.380 276.980 C 146.731 277.318,145.973 277.596,145.695 277.598 C 145.417 277.599,144.877 277.774,144.495 277.986 C 143.537 278.518,140.392 279.846,139.300 280.179 C 138.805 280.330,138.400 280.602,138.400 280.784 C 138.400 280.965,137.950 281.226,137.400 281.364 C 136.850 281.502,136.400 281.792,136.400 282.008 C 136.400 282.223,136.143 282.400,135.829 282.400 C 135.514 282.400,135.013 282.625,134.715 282.900 C 134.416 283.175,133.099 283.940,131.786 284.600 C 130.474 285.260,129.308 285.921,129.196 286.068 C 129.084 286.216,128.499 286.460,127.896 286.612 C 127.293 286.763,126.800 287.047,126.800 287.243 C 126.800 287.759,126.033 287.681,125.385 287.100 C 125.079 286.825,124.597 286.420,124.314 286.200 C 120.598 283.305,116.359 279.547,114.225 277.256 C 113.331 276.297,111.565 274.427,110.300 273.101 C 109.035 271.775,107.997 270.580,107.994 270.445 C 107.988 270.232,107.470 269.580,105.108 266.813 C 104.205 265.756,102.800 263.572,102.800 263.225 C 102.800 263.038,102.530 262.782,102.200 262.655 C 101.870 262.529,101.600 262.149,101.600 261.813 C 101.600 261.476,101.442 261.200,101.249 261.200 C 101.055 261.200,100.673 260.660,100.400 260.000 C 100.127 259.340,99.759 258.800,99.583 258.800 C 99.407 258.800,99.145 258.260,99.000 257.600 C 98.855 256.940,98.574 256.400,98.376 256.400 C 98.178 256.400,97.902 255.950,97.764 255.400 C 97.626 254.850,97.367 254.400,97.188 254.400 C 97.009 254.400,96.654 253.770,96.400 253.000 C 96.146 252.230,95.786 251.600,95.601 251.600 C 95.415 251.600,95.145 251.060,95.000 250.400 C 94.855 249.740,94.579 249.200,94.386 249.200 C 94.194 249.200,93.918 248.570,93.774 247.800 C 93.629 247.030,93.371 246.400,93.199 246.400 C 93.027 246.400,92.764 245.911,92.614 245.314 C 92.464 244.717,91.995 243.466,91.571 242.536 C 91.147 241.605,90.800 240.575,90.800 240.246 C 90.800 239.916,90.636 239.546,90.435 239.422 C 90.234 239.297,89.948 238.477,89.800 237.598 C 89.651 236.719,89.382 236.000,89.201 236.000 C 89.020 236.000,88.660 234.740,88.400 233.200 C 88.140 231.660,87.782 230.400,87.603 230.400 C 87.425 230.400,87.149 229.275,86.991 227.900 C 86.833 226.525,86.557 225.306,86.377 225.192 C 86.197 225.077,85.922 223.547,85.766 221.792 C 85.610 220.036,85.284 218.472,85.041 218.315 C 84.423 217.915,84.421 194.087,85.039 193.685 C 85.281 193.528,85.600 192.063,85.749 190.430 C 85.897 188.796,86.174 187.266,86.365 187.030 C 86.555 186.793,86.841 185.610,87.000 184.400 C 87.159 183.190,87.433 182.020,87.607 181.800 C 87.782 181.580,88.145 180.275,88.414 178.900 C 88.684 177.525,89.041 176.400,89.208 176.400 C 89.374 176.400,89.626 175.786,89.767 175.034 C 89.908 174.283,90.535 172.708,91.160 171.534 C 91.785 170.361,92.424 168.815,92.580 168.100 C 92.736 167.385,93.009 166.800,93.187 166.800 C 93.365 166.800,93.628 166.178,93.770 165.417 C 93.913 164.656,94.292 163.531,94.612 162.917 C 94.933 162.303,95.196 161.596,95.198 161.346 C 95.199 161.096,95.469 160.376,95.798 159.746 C 97.145 157.161,94.417 154.800,90.082 154.800 C 89.817 154.800,89.600 154.653,89.600 154.473 C 89.600 154.294,88.385 153.910,86.900 153.621 C 85.415 153.332,83.978 152.919,83.706 152.704 C 82.505 151.751,76.674 151.852,75.400 152.848 M209.286 167.420 C 209.059 170.962,209.338 171.376,213.114 173.102 C 214.371 173.677,216.029 174.518,216.797 174.970 L 218.194 175.793 216.997 176.049 C 216.339 176.190,214.776 176.327,213.524 176.353 C 212.272 176.379,211.136 176.580,211.000 176.800 C 210.864 177.020,210.324 177.200,209.800 177.200 C 209.276 177.200,208.734 177.383,208.596 177.606 C 207.726 179.015,193.871 183.211,189.700 183.329 C 188.325 183.368,187.200 183.535,187.200 183.700 C 187.200 183.865,187.020 184.000,186.800 184.000 C 186.574 184.000,186.400 182.867,186.400 181.400 C 186.400 179.970,186.241 178.800,186.047 178.800 C 185.852 178.800,185.599 178.440,185.484 178.000 C 185.332 177.417,184.938 177.200,184.037 177.200 C 183.357 177.200,182.800 177.020,182.800 176.800 C 182.800 176.578,181.741 176.400,180.424 176.400 C 179.117 176.400,177.936 176.580,177.800 176.800 C 177.462 177.347,176.400 177.307,176.400 176.747 C 176.400 176.053,179.133 173.632,180.228 173.357 C 180.763 173.223,181.200 172.973,181.200 172.801 C 181.200 172.629,181.830 172.371,182.600 172.226 C 183.370 172.082,184.000 171.817,184.000 171.638 C 184.000 171.458,184.925 171.202,186.055 171.068 C 187.185 170.934,188.400 170.570,188.755 170.259 C 190.512 168.718,194.430 167.297,200.000 166.179 C 201.430 165.893,203.410 165.453,204.400 165.202 C 205.390 164.951,206.658 164.836,207.219 164.947 C 207.779 165.057,208.499 164.982,208.819 164.780 C 209.138 164.578,209.418 164.409,209.440 164.406 C 209.462 164.403,209.393 165.759,209.286 167.420 M210.104 194.264 C 208.270 195.004,208.217 198.359,210.003 200.520 C 210.221 200.784,211.010 201.711,211.756 202.580 C 213.384 204.476,213.266 205.023,211.156 205.361 C 210.039 205.539,209.208 206.019,208.380 206.962 C 207.696 207.741,206.230 208.689,204.899 209.213 C 202.325 210.225,202.042 210.344,195.600 213.119 C 193.070 214.208,189.589 215.755,187.865 216.555 L 184.731 218.011 185.012 215.012 C 185.464 210.181,185.083 208.728,182.778 206.505 C 181.693 205.457,180.803 204.390,180.802 204.133 C 180.799 203.393,185.307 200.580,188.284 199.464 C 193.962 197.336,206.637 194.244,208.139 194.620 C 208.674 194.755,209.233 194.670,209.380 194.432 C 209.527 194.195,209.862 194.014,210.124 194.032 C 210.471 194.055,210.465 194.118,210.104 194.264 M352.000 273.597 C 351.670 274.082,350.725 275.394,349.900 276.512 C 349.075 277.630,348.400 278.782,348.400 279.072 C 348.400 279.363,348.261 279.600,348.092 279.600 C 347.922 279.600,347.337 280.452,346.792 281.493 C 346.246 282.534,345.587 283.615,345.326 283.895 C 345.066 284.175,344.726 284.809,344.572 285.302 C 344.418 285.796,344.181 286.291,344.046 286.401 C 343.802 286.600,342.604 288.731,341.021 291.782 C 340.570 292.653,339.975 293.611,339.700 293.911 C 339.425 294.211,339.200 294.699,339.200 294.995 C 339.200 295.291,339.038 295.593,338.839 295.667 C 338.462 295.806,334.000 301.467,334.000 301.806 C 334.000 301.913,333.685 302.328,333.300 302.729 C 332.562 303.497,331.028 305.394,329.523 307.400 C 329.027 308.060,328.302 308.835,327.911 309.123 C 327.520 309.410,327.200 309.820,327.200 310.033 C 327.200 310.246,326.166 311.507,324.903 312.834 C 323.640 314.160,322.475 315.480,322.315 315.765 C 321.871 316.559,316.871 321.484,314.400 323.562 C 313.190 324.579,311.546 326.039,310.748 326.806 C 309.273 328.221,307.570 329.643,305.400 331.271 C 304.740 331.766,304.056 332.403,303.880 332.686 C 303.704 332.969,303.339 333.200,303.069 333.200 C 302.799 333.200,302.280 333.515,301.915 333.900 C 300.690 335.194,295.473 338.800,294.825 338.800 C 294.638 338.800,294.382 339.070,294.255 339.400 C 294.129 339.730,293.749 340.000,293.413 340.000 C 293.076 340.000,292.799 340.135,292.799 340.300 C 292.798 340.465,291.764 341.140,290.502 341.800 C 289.240 342.460,287.987 343.180,287.717 343.400 C 287.448 343.620,286.983 344.003,286.683 344.251 C 286.384 344.499,285.702 344.839,285.169 345.006 C 284.636 345.173,283.771 345.645,283.246 346.055 C 282.721 346.465,282.046 346.800,281.746 346.800 C 281.446 346.800,281.200 346.980,281.200 347.200 C 281.200 347.420,280.958 347.600,280.661 347.600 C 280.365 347.600,279.707 347.960,279.200 348.400 C 278.693 348.840,278.029 349.200,277.726 349.200 C 277.423 349.200,277.071 349.470,276.945 349.800 C 276.818 350.130,276.491 350.400,276.218 350.400 C 275.563 350.400,274.000 351.772,274.000 352.347 C 274.000 352.596,273.768 352.800,273.485 352.800 C 273.085 352.800,273.034 353.450,273.260 355.700 C 273.420 357.295,273.562 364.664,273.575 372.076 C 273.603 386.997,273.452 386.308,276.484 385.378 C 279.310 384.510,286.878 381.122,287.600 380.400 C 287.710 380.290,289.240 379.453,291.000 378.541 C 296.447 375.717,296.996 375.409,297.133 375.100 C 297.207 374.935,297.497 374.800,297.779 374.800 C 298.061 374.800,298.736 374.451,299.278 374.025 C 299.820 373.598,300.744 373.129,301.332 372.981 C 301.919 372.834,302.400 372.553,302.400 372.357 C 302.400 372.160,302.676 372.000,303.013 372.000 C 303.349 372.000,303.722 371.746,303.841 371.436 C 303.961 371.126,304.538 370.752,305.125 370.604 C 305.712 370.457,306.284 370.207,306.396 370.049 C 306.508 369.891,307.500 369.242,308.600 368.607 C 309.700 367.972,310.838 367.216,311.129 366.926 C 311.419 366.637,311.914 366.400,312.229 366.400 C 312.543 366.400,312.800 366.214,312.800 365.987 C 312.800 365.761,313.115 365.460,313.500 365.319 C 313.885 365.179,314.584 364.779,315.054 364.432 C 315.523 364.084,316.310 363.530,316.803 363.200 C 317.295 362.870,317.905 362.403,318.157 362.163 C 318.410 361.923,319.051 361.494,319.583 361.209 C 320.673 360.626,321.137 360.268,322.836 358.700 C 323.491 358.095,324.158 357.600,324.317 357.600 C 324.635 357.600,328.174 354.533,331.471 351.400 C 332.629 350.300,334.395 348.770,335.395 348.000 C 337.468 346.405,345.506 338.489,347.582 335.998 C 348.342 335.086,349.332 333.927,349.782 333.422 C 350.232 332.918,351.361 331.626,352.292 330.552 C 353.223 329.479,354.614 327.880,355.383 327.000 C 356.152 326.120,356.786 325.279,356.791 325.131 C 356.796 324.983,357.340 324.322,358.000 323.662 C 358.660 323.002,359.203 322.313,359.207 322.131 C 359.211 321.949,359.661 321.376,360.207 320.858 C 360.753 320.340,361.200 319.665,361.200 319.358 C 361.200 319.051,361.386 318.800,361.613 318.800 C 361.839 318.800,362.145 318.485,362.292 318.100 C 362.439 317.715,362.956 316.971,363.441 316.446 C 363.926 315.921,364.565 315.021,364.861 314.446 C 365.157 313.871,365.493 313.310,365.609 313.200 C 365.888 312.933,367.276 310.801,367.822 309.800 C 368.747 308.102,369.408 306.992,369.608 306.800 C 369.723 306.690,370.036 306.150,370.305 305.600 C 370.915 304.354,371.656 303.191,372.274 302.515 C 372.534 302.229,372.873 301.600,373.027 301.116 C 373.180 300.633,373.507 300.010,373.753 299.733 C 374.937 298.396,375.186 297.994,375.427 297.034 C 375.570 296.465,375.836 296.000,376.017 296.000 C 376.199 296.000,376.576 295.370,376.854 294.600 C 377.133 293.830,377.490 293.200,377.649 293.200 C 377.807 293.200,378.055 292.660,378.200 292.000 C 378.345 291.340,378.610 290.800,378.788 290.800 C 378.967 290.800,379.237 290.307,379.388 289.704 C 379.540 289.101,379.784 288.516,379.932 288.404 C 380.363 288.076,381.943 284.700,382.227 283.500 C 382.370 282.895,382.633 282.400,382.812 282.400 C 382.990 282.400,383.262 281.815,383.414 281.100 C 383.567 280.385,383.824 279.620,383.985 279.400 C 384.369 278.876,385.682 274.749,385.518 274.585 C 385.448 274.515,379.903 274.163,373.195 273.804 C 350.181 272.572,352.680 272.596,352.000 273.597 M13.600 273.469 C 13.600 273.784,15.401 278.437,16.228 280.260 C 16.543 280.954,16.800 281.809,16.800 282.160 C 16.800 282.512,16.980 282.800,17.200 282.800 C 17.420 282.800,17.600 283.028,17.600 283.306 C 17.600 283.584,17.960 284.484,18.400 285.304 C 18.840 286.125,19.200 287.046,19.200 287.350 C 19.200 287.653,19.458 288.117,19.774 288.379 C 20.090 288.641,20.464 289.383,20.606 290.028 C 20.748 290.672,21.015 291.200,21.200 291.200 C 21.385 291.200,21.655 291.740,21.800 292.400 C 21.945 293.060,22.193 293.600,22.351 293.600 C 22.510 293.600,22.867 294.230,23.146 295.000 C 23.424 295.770,23.806 296.400,23.994 296.400 C 24.182 296.400,24.455 296.940,24.600 297.600 C 24.745 298.260,25.029 298.800,25.232 298.800 C 25.434 298.800,25.600 299.076,25.600 299.413 C 25.600 299.749,25.854 300.122,26.164 300.241 C 26.474 300.361,26.842 300.913,26.982 301.469 C 27.209 302.375,28.610 304.683,29.246 305.200 C 29.381 305.310,29.619 305.805,29.773 306.300 C 29.928 306.795,30.204 307.200,30.388 307.200 C 30.571 307.200,30.910 307.740,31.140 308.400 C 31.370 309.060,31.748 309.600,31.979 309.600 C 32.211 309.600,32.400 309.857,32.400 310.171 C 32.400 310.486,32.625 310.983,32.900 311.277 C 33.175 311.571,34.462 313.384,35.761 315.306 C 37.059 317.228,38.274 318.800,38.461 318.800 C 38.647 318.800,38.800 319.025,38.800 319.300 C 38.801 319.575,39.206 320.278,39.700 320.863 C 40.195 321.447,40.870 322.324,41.200 322.812 C 41.530 323.299,41.986 323.901,42.213 324.149 C 42.440 324.397,43.057 325.230,43.584 326.000 C 44.111 326.770,44.825 327.706,45.171 328.081 C 45.517 328.455,45.980 328.995,46.200 329.281 C 47.899 331.486,50.386 334.367,51.300 335.189 C 51.905 335.733,52.400 336.326,52.400 336.508 C 52.400 336.907,62.990 347.600,63.385 347.600 C 63.538 347.600,64.350 348.275,65.190 349.100 C 66.030 349.925,67.231 350.998,67.858 351.484 C 68.486 351.971,69.648 352.961,70.441 353.684 C 73.528 356.503,74.895 357.601,75.339 357.617 C 75.592 357.626,76.242 358.166,76.781 358.817 C 77.321 359.468,77.977 360.000,78.238 360.000 C 78.500 360.000,78.818 360.270,78.945 360.600 C 79.071 360.930,79.423 361.200,79.725 361.200 C 80.028 361.200,80.602 361.560,81.000 362.000 C 81.398 362.440,81.947 362.800,82.219 362.800 C 82.492 362.800,82.818 363.070,82.945 363.400 C 83.071 363.730,83.451 364.000,83.787 364.000 C 84.124 364.000,84.400 364.158,84.400 364.351 C 84.400 364.545,84.940 364.927,85.600 365.200 C 86.260 365.473,86.800 365.855,86.800 366.049 C 86.800 366.242,87.061 366.400,87.380 366.400 C 87.699 366.400,88.104 366.625,88.280 366.900 C 88.647 367.473,89.602 368.107,91.600 369.102 C 92.370 369.486,93.219 369.980,93.486 370.200 C 94.648 371.156,95.057 371.434,96.000 371.911 C 96.550 372.189,98.080 373.041,99.400 373.804 C 100.720 374.567,102.295 375.413,102.900 375.683 C 103.505 375.954,104.000 376.287,104.000 376.424 C 104.000 376.560,104.720 376.910,105.600 377.200 C 106.480 377.490,107.200 377.865,107.200 378.032 C 107.200 378.200,107.740 378.455,108.400 378.600 C 109.060 378.745,109.600 379.010,109.600 379.188 C 109.600 379.367,110.093 379.637,110.696 379.788 C 111.299 379.940,111.884 380.186,111.996 380.336 C 112.108 380.486,113.190 381.028,114.400 381.540 C 115.610 382.052,117.266 382.815,118.079 383.236 C 118.893 383.656,119.928 384.000,120.379 384.000 C 120.831 384.000,121.200 384.166,121.200 384.368 C 121.200 384.571,121.752 384.858,122.427 385.006 C 123.102 385.154,124.137 385.527,124.727 385.835 C 125.839 386.416,126.800 386.570,126.800 386.169 C 126.800 386.042,126.423 383.837,125.963 381.269 C 124.916 375.433,125.304 352.800,126.450 352.800 C 127.234 352.800,126.730 351.998,125.800 351.764 C 125.250 351.626,124.800 351.370,124.800 351.196 C 124.800 351.021,124.305 350.677,123.700 350.430 C 122.311 349.864,120.392 348.751,119.686 348.100 C 119.387 347.825,118.886 347.600,118.571 347.600 C 118.257 347.600,118.000 347.438,118.000 347.239 C 118.000 347.041,117.505 346.679,116.900 346.434 C 116.295 346.190,115.080 345.551,114.200 345.014 C 113.320 344.477,112.330 343.908,112.000 343.748 C 111.670 343.589,111.310 343.354,111.200 343.225 C 110.777 342.732,107.597 340.800,107.209 340.800 C 106.984 340.800,106.800 340.632,106.800 340.427 C 106.800 340.222,106.403 339.928,105.919 339.774 C 105.434 339.620,104.810 339.293,104.533 339.047 C 103.583 338.206,102.999 337.800,102.000 337.284 C 101.450 337.001,100.370 336.238,99.600 335.589 C 97.412 333.745,97.399 333.735,96.473 333.239 C 95.992 332.981,95.065 332.282,94.414 331.685 C 91.855 329.337,90.483 328.129,88.458 326.441 C 86.097 324.473,72.402 310.836,72.397 310.448 C 72.395 310.312,71.502 309.210,70.412 308.000 C 67.346 304.596,67.296 304.531,67.013 303.639 C 66.866 303.178,66.595 302.800,66.410 302.800 C 66.226 302.800,65.023 301.227,63.737 299.305 C 62.452 297.383,61.175 295.570,60.900 295.277 C 60.625 294.983,60.400 294.568,60.400 294.355 C 60.400 294.141,60.217 293.749,59.994 293.483 C 59.155 292.484,57.600 289.950,57.600 289.582 C 57.600 289.372,57.420 289.200,57.200 289.200 C 56.980 289.200,56.800 288.924,56.800 288.587 C 56.800 288.251,56.530 287.871,56.200 287.745 C 55.870 287.618,55.600 287.324,55.600 287.091 C 55.600 286.672,49.681 276.385,49.218 276.000 C 49.086 275.890,48.800 275.385,48.583 274.877 L 48.188 273.954 36.394 274.005 C 29.907 274.033,22.903 274.184,20.830 274.340 C 17.618 274.582,16.863 274.518,15.731 273.912 C 14.343 273.168,13.600 273.013,13.600 273.469 " stroke="none" fill="#801494" fill-rule="evenodd"></path><path id="path3" d="M195.000 205.387 C 194.120 205.718,193.378 205.991,193.352 205.994 C 192.579 206.091,192.237 213.170,192.970 213.903 C 193.077 214.010,195.437 213.131,198.216 211.949 L 203.268 209.800 203.017 208.200 C 202.551 205.240,198.850 203.942,195.000 205.387 M197.261 225.461 C 194.765 226.387,192.650 227.217,192.562 227.305 C 192.474 227.393,192.583 231.680,192.804 236.832 C 193.026 241.985,193.324 248.945,193.466 252.300 C 193.745 258.888,193.870 259.184,195.401 256.870 C 196.727 254.866,197.463 251.044,197.803 244.400 C 198.080 238.964,198.497 237.219,199.965 235.354 L 200.751 234.354 201.343 235.277 C 204.706 240.526,202.040 255.598,196.573 262.239 C 193.141 266.407,191.545 270.825,193.700 270.188 C 201.771 267.804,206.388 256.452,206.397 238.975 L 206.400 232.150 205.300 231.127 C 204.695 230.564,203.713 229.795,203.117 229.417 C 202.159 228.809,202.022 228.448,201.917 226.255 L 201.800 223.778 197.261 225.461 " stroke="none" fill="#e6fbfb" fill-rule="evenodd"></path><path id="path4" d="M16.300 125.893 C 17.235 125.977,18.765 125.977,19.700 125.893 C 20.635 125.809,19.870 125.740,18.000 125.740 C 16.130 125.740,15.365 125.809,16.300 125.893 M22.900 126.287 C 23.505 126.378,24.495 126.378,25.100 126.287 C 25.705 126.195,25.210 126.120,24.000 126.120 C 22.790 126.120,22.295 126.195,22.900 126.287 M363.500 126.293 C 364.435 126.377,365.965 126.377,366.900 126.293 C 367.835 126.209,367.070 126.140,365.200 126.140 C 363.330 126.140,362.565 126.209,363.500 126.293 M32.400 126.817 C 33.610 126.984,36.310 127.154,38.400 127.194 C 40.490 127.235,43.236 127.397,44.501 127.555 C 45.767 127.713,46.661 127.701,46.487 127.527 C 46.314 127.354,42.938 127.033,38.986 126.814 C 30.937 126.367,29.156 126.368,32.400 126.817 M354.200 127.600 C 353.369 128.260,352.867 128.800,353.083 128.800 C 353.299 128.800,353.802 128.440,354.200 128.000 C 354.598 127.560,355.155 127.200,355.438 127.200 C 355.721 127.200,356.064 127.020,356.200 126.800 C 356.682 126.019,355.689 126.417,354.200 127.600 M382.400 126.494 C 382.400 126.944,386.469 129.638,386.891 129.468 C 387.282 129.311,387.274 129.256,386.858 129.232 C 386.559 129.214,385.659 128.690,384.858 128.067 C 383.261 126.827,382.400 126.275,382.400 126.494 M204.845 152.432 C 203.879 152.622,202.986 152.881,202.860 153.007 C 202.526 153.341,206.090 152.754,206.800 152.359 C 207.513 151.961,207.180 151.974,204.845 152.432 M198.445 153.632 C 197.479 153.822,196.586 154.081,196.460 154.207 C 196.193 154.474,199.328 154.014,200.800 153.570 C 202.211 153.145,200.727 153.184,198.445 153.632 M190.400 155.200 L 189.400 155.520 190.400 155.513 C 190.950 155.509,191.940 155.368,192.600 155.200 L 193.800 154.895 192.600 154.887 C 191.940 154.883,190.950 155.024,190.400 155.200 M204.080 165.195 C 203.354 165.367,202.634 165.639,202.480 165.800 C 202.128 166.169,204.790 165.628,205.600 165.166 C 206.312 164.761,205.878 164.769,204.080 165.195 M198.445 166.432 C 197.479 166.622,196.579 166.893,196.445 167.034 C 196.142 167.352,199.502 166.818,200.600 166.374 C 201.622 165.961,200.721 165.985,198.445 166.432 M192.400 168.200 C 191.094 168.947,191.551 168.955,193.254 168.216 C 193.994 167.894,194.330 167.631,194.000 167.630 C 193.670 167.629,192.950 167.886,192.400 168.200 M205.000 179.014 C 204.000 179.496,203.966 179.551,204.800 179.348 C 205.933 179.071,207.207 178.421,206.600 178.430 C 206.380 178.433,205.660 178.696,205.000 179.014 M201.600 180.200 C 200.830 180.497,200.470 180.745,200.800 180.752 C 201.130 180.758,201.940 180.517,202.600 180.214 C 204.145 179.507,203.426 179.497,201.600 180.200 M196.880 181.595 C 196.154 181.767,195.447 182.020,195.309 182.158 C 194.971 182.496,197.644 181.976,198.400 181.557 C 199.116 181.160,198.668 181.171,196.880 181.595 M191.200 182.853 C 189.990 183.050,188.820 183.294,188.600 183.396 C 187.907 183.714,192.960 183.107,193.800 182.771 C 194.810 182.367,194.027 182.391,191.200 182.853 M201.600 195.644 C 190.538 198.368,186.436 199.816,182.919 202.238 C 180.327 204.023,180.323 204.135,182.778 206.505 C 185.083 208.728,185.464 210.181,185.012 215.012 L 184.731 218.011 187.865 216.567 C 189.589 215.773,191.410 214.929,191.912 214.692 C 192.758 214.292,192.805 214.091,192.560 211.930 C 191.968 206.694,193.447 204.973,198.492 205.030 C 201.731 205.067,202.647 205.709,203.022 208.207 L 203.279 209.923 205.200 209.124 C 207.647 208.107,209.660 206.131,208.793 205.596 C 208.328 205.309,208.172 204.066,208.069 199.815 C 207.915 193.466,208.616 193.917,201.600 195.644 M203.300 223.275 C 201.428 223.776,201.282 228.252,203.100 229.406 C 203.705 229.790,204.695 230.564,205.300 231.127 L 206.400 232.150 206.397 238.975 C 206.388 256.452,201.771 267.804,193.700 270.188 C 191.545 270.825,193.141 266.407,196.573 262.239 C 202.040 255.598,204.706 240.526,201.343 235.277 L 200.751 234.354 199.965 235.354 C 198.497 237.219,198.080 238.964,197.803 244.400 C 197.463 251.044,196.727 254.866,195.401 256.870 C 193.870 259.184,193.745 258.888,193.466 252.300 C 192.609 232.078,192.389 227.456,192.278 227.345 C 192.211 227.277,191.495 227.404,190.689 227.626 C 187.869 228.405,188.000 227.141,188.000 253.489 L 188.000 277.200 189.976 277.200 C 191.063 277.200,192.052 277.040,192.173 276.844 C 192.294 276.649,192.872 276.368,193.458 276.221 C 196.541 275.447,205.600 266.748,205.600 264.561 C 205.600 264.289,205.741 264.007,205.913 263.933 C 206.499 263.684,207.958 260.828,208.224 259.412 C 208.370 258.635,208.640 258.000,208.825 258.000 C 209.009 258.000,209.283 256.916,209.433 255.591 C 209.583 254.266,209.862 253.086,210.053 252.967 C 210.551 252.659,210.500 229.309,210.000 229.000 C 209.780 228.864,209.600 228.297,209.600 227.739 C 209.600 227.062,209.335 226.656,208.800 226.516 C 208.360 226.401,208.000 226.148,208.000 225.953 C 208.000 225.759,207.740 225.600,207.423 225.600 C 207.105 225.600,206.530 225.066,206.144 224.413 C 205.287 222.963,204.957 222.831,203.300 223.275 M354.305 272.683 C 354.802 272.779,355.522 272.775,355.905 272.675 C 356.287 272.575,355.880 272.496,355.000 272.501 C 354.120 272.505,353.807 272.587,354.305 272.683 M15.000 273.600 C 16.999 274.619,17.339 274.619,15.800 273.600 C 15.140 273.163,14.337 272.804,14.015 272.803 C 13.694 272.801,14.137 273.160,15.000 273.600 M362.400 273.189 C 367.263 273.639,378.845 274.017,375.600 273.620 C 374.170 273.445,369.850 273.206,366.000 273.089 C 361.358 272.947,360.145 272.981,362.400 273.189 M37.400 273.600 L 27.800 273.822 37.700 273.911 C 44.093 273.968,47.600 273.858,47.600 273.600 C 47.600 273.380,47.465 273.240,47.300 273.289 C 47.135 273.338,42.680 273.478,37.400 273.600 M20.100 274.287 C 20.705 274.378,21.695 274.378,22.300 274.287 C 22.905 274.195,22.410 274.120,21.200 274.120 C 19.990 274.120,19.495 274.195,20.100 274.287 M381.907 274.290 C 382.626 274.379,383.706 274.377,384.307 274.286 C 384.908 274.195,384.320 274.122,383.000 274.124 C 381.680 274.126,381.188 274.201,381.907 274.290 " stroke="none" fill="#2a83be" fill-rule="evenodd"></path></g></svg>